<?xml version="1.0" encoding="UTF-8"?><svg xmlns="http://www.w3.org/2000/svg" xmlns:xlink="http://www.w3.org/1999/xlink" contentScriptType="text/ecmascript" width="375pt" zoomAndPan="magnify" contentStyleType="text/css" viewBox="0 0 375 374.999991" height="374.999991pt" preserveAspectRatio="xMidYMid meet" version="1.2"><defs><clipPath xml:id="clip1" id="clip1"><path d="M 56.25 154.6875 L 122 154.6875 L 122 220.6875 L 56.25 220.6875 Z M 56.25 154.6875 "/></clipPath><clipPath xml:id="clip2" id="clip2"><path d="M 154 154.6875 L 221 154.6875 L 221 220.6875 L 154 220.6875 Z M 154 154.6875 "/></clipPath><clipPath xml:id="clip3" id="clip3"><path d="M 253 154.6875 L 318.75 154.6875 L 318.75 220.6875 L 253 220.6875 Z M 253 154.6875 "/></clipPath><clipPath xml:id="clip4" id="clip4"><path d="M 56.25 154.6875 L 122 154.6875 L 122 220.6875 L 56.25 220.6875 Z M 56.25 154.6875 "/></clipPath><clipPath xml:id="clip5" id="clip5"><path d="M 154 154.6875 L 221 154.6875 L 221 220.6875 L 154 220.6875 Z M 154 154.6875 "/></clipPath><clipPath xml:id="clip6" id="clip6"><path d="M 253 154.6875 L 318.75 154.6875 L 318.75 220.6875 L 253 220.6875 Z M 253 154.6875 "/></clipPath></defs><g xml:id="surface1" id="surface1"><g clip-rule="nonzero" clip-path="url(#clip1)"><path style=" stroke:none;fill-rule:nonzero;fill:rgb(65.098572%,65.098572%,65.098572%);fill-opacity:1;" d="M 121.875 187.6875 C 121.875 188.769531 121.824219 189.847656 121.71875 190.921875 C 121.613281 191.996094 121.453125 193.066406 121.246094 194.125 C 121.035156 195.183594 120.773438 196.234375 120.460938 197.265625 C 120.148438 198.300781 119.789062 199.316406 119.378906 200.316406 C 118.964844 201.316406 118.507812 202.289062 118 203.242188 C 117.492188 204.195312 116.941406 205.121094 116.34375 206.019531 C 115.746094 206.921875 115.109375 207.785156 114.425781 208.621094 C 113.746094 209.457031 113.023438 210.257812 112.265625 211.023438 C 111.503906 211.785156 110.710938 212.511719 109.878906 213.195312 C 109.046875 213.882812 108.1875 214.527344 107.292969 215.125 C 106.398438 215.726562 105.476562 216.28125 104.53125 216.789062 C 103.582031 217.300781 102.613281 217.761719 101.621094 218.175781 C 100.625 218.589844 99.617188 218.953125 98.585938 219.265625 C 97.558594 219.582031 96.519531 219.84375 95.464844 220.054688 C 94.410156 220.265625 93.347656 220.421875 92.277344 220.527344 C 91.210938 220.632812 90.136719 220.6875 89.0625 220.6875 C 87.988281 220.6875 86.914062 220.632812 85.847656 220.527344 C 84.777344 220.421875 83.714844 220.265625 82.660156 220.054688 C 81.605469 219.84375 80.566406 219.582031 79.539062 219.265625 C 78.507812 218.953125 77.5 218.589844 76.503906 218.175781 C 75.511719 217.761719 74.542969 217.300781 73.59375 216.789062 C 72.648438 216.28125 71.726562 215.726562 70.832031 215.125 C 69.9375 214.527344 69.078125 213.882812 68.246094 213.195312 C 67.414062 212.511719 66.621094 211.785156 65.859375 211.023438 C 65.101562 210.257812 64.378906 209.457031 63.699219 208.621094 C 63.015625 207.785156 62.375 206.921875 61.78125 206.019531 C 61.183594 205.121094 60.632812 204.195312 60.125 203.242188 C 59.617188 202.289062 59.160156 201.316406 58.746094 200.316406 C 58.335938 199.316406 57.976562 198.300781 57.664062 197.265625 C 57.351562 196.234375 57.089844 195.183594 56.878906 194.125 C 56.671875 193.066406 56.511719 191.996094 56.40625 190.921875 C 56.300781 189.847656 56.25 188.769531 56.25 187.6875 C 56.25 186.605469 56.300781 185.527344 56.40625 184.453125 C 56.511719 183.378906 56.671875 182.308594 56.878906 181.25 C 57.089844 180.191406 57.351562 179.140625 57.664062 178.109375 C 57.976562 177.074219 58.335938 176.058594 58.746094 175.058594 C 59.160156 174.058594 59.617188 173.085938 60.125 172.132812 C 60.632812 171.179688 61.183594 170.253906 61.78125 169.355469 C 62.375 168.453125 63.015625 167.589844 63.699219 166.753906 C 64.378906 165.917969 65.101562 165.117188 65.859375 164.351562 C 66.621094 163.589844 67.414062 162.863281 68.246094 162.179688 C 69.078125 161.492188 69.9375 160.847656 70.832031 160.25 C 71.726562 159.648438 72.648438 159.09375 73.59375 158.585938 C 74.542969 158.074219 75.511719 157.613281 76.503906 157.199219 C 77.5 156.785156 78.507812 156.421875 79.539062 156.109375 C 80.566406 155.792969 81.605469 155.53125 82.660156 155.320312 C 83.714844 155.109375 84.777344 154.953125 85.847656 154.847656 C 86.914062 154.742188 87.988281 154.6875 89.0625 154.6875 C 90.136719 154.6875 91.210938 154.742188 92.277344 154.847656 C 93.347656 154.953125 94.410156 155.109375 95.464844 155.320312 C 96.519531 155.53125 97.558594 155.792969 98.585938 156.109375 C 99.617188 156.421875 100.625 156.785156 101.621094 157.199219 C 102.613281 157.613281 103.582031 158.074219 104.53125 158.585938 C 105.476562 159.09375 106.398438 159.648438 107.292969 160.25 C 108.1875 160.847656 109.046875 161.492188 109.878906 162.179688 C 110.710938 162.863281 111.503906 163.589844 112.265625 164.351562 C 113.023438 165.117188 113.746094 165.917969 114.425781 166.753906 C 115.109375 167.589844 115.746094 168.453125 116.34375 169.355469 C 116.941406 170.253906 117.492188 171.179688 118 172.132812 C 118.507812 173.085938 118.964844 174.058594 119.378906 175.058594 C 119.789062 176.058594 120.148438 177.074219 120.460938 178.109375 C 120.773438 179.140625 121.035156 180.191406 121.246094 181.25 C 121.453125 182.308594 121.613281 183.378906 121.71875 184.453125 C 121.824219 185.527344 121.875 186.605469 121.875 187.6875 Z M 121.875 187.6875 "/></g><g clip-rule="nonzero" clip-path="url(#clip2)"><path style=" stroke:none;fill-rule:nonzero;fill:rgb(65.098572%,65.098572%,65.098572%);fill-opacity:1;" d="M 220.3125 187.6875 C 220.3125 188.769531 220.261719 189.847656 220.15625 190.921875 C 220.050781 191.996094 219.890625 193.066406 219.683594 194.125 C 219.472656 195.183594 219.210938 196.234375 218.898438 197.265625 C 218.585938 198.300781 218.226562 199.316406 217.816406 200.316406 C 217.402344 201.316406 216.945312 202.289062 216.4375 203.242188 C 215.929688 204.195312 215.378906 205.121094 214.78125 206.019531 C 214.183594 206.921875 213.546875 207.785156 212.863281 208.621094 C 212.183594 209.457031 211.460938 210.257812 210.703125 211.023438 C 209.941406 211.785156 209.148438 212.511719 208.316406 213.195312 C 207.484375 213.882812 206.625 214.527344 205.730469 215.125 C 204.835938 215.726562 203.914062 216.28125 202.96875 216.789062 C 202.019531 217.300781 201.050781 217.761719 200.058594 218.175781 C 199.0625 218.589844 198.054688 218.953125 197.023438 219.265625 C 195.996094 219.582031 194.957031 219.84375 193.902344 220.054688 C 192.847656 220.265625 191.785156 220.421875 190.714844 220.527344 C 189.648438 220.632812 188.574219 220.6875 187.5 220.6875 C 186.425781 220.6875 185.351562 220.632812 184.285156 220.527344 C 183.214844 220.421875 182.152344 220.265625 181.097656 220.054688 C 180.042969 219.84375 179.003906 219.582031 177.976562 219.265625 C 176.945312 218.953125 175.9375 218.589844 174.941406 218.175781 C 173.949219 217.761719 172.980469 217.300781 172.03125 216.789062 C 171.085938 216.28125 170.164062 215.726562 169.269531 215.125 C 168.375 214.527344 167.515625 213.882812 166.683594 213.195312 C 165.851562 212.511719 165.058594 211.785156 164.296875 211.023438 C 163.539062 210.257812 162.816406 209.457031 162.136719 208.621094 C 161.453125 207.785156 160.8125 206.921875 160.21875 206.019531 C 159.621094 205.121094 159.070312 204.195312 158.5625 203.242188 C 158.054688 202.289062 157.597656 201.316406 157.183594 200.316406 C 156.773438 199.316406 156.414062 198.300781 156.101562 197.265625 C 155.789062 196.234375 155.527344 195.183594 155.316406 194.125 C 155.109375 193.066406 154.949219 191.996094 154.84375 190.921875 C 154.738281 189.847656 154.6875 188.769531 154.6875 187.6875 C 154.6875 186.605469 154.738281 185.527344 154.84375 184.453125 C 154.949219 183.378906 155.109375 182.308594 155.316406 181.25 C 155.527344 180.191406 155.789062 179.140625 156.101562 178.109375 C 156.414062 177.074219 156.773438 176.058594 157.183594 175.058594 C 157.597656 174.058594 158.054688 173.085938 158.5625 172.132812 C 159.070312 171.179688 159.621094 170.253906 160.21875 169.355469 C 160.8125 168.453125 161.453125 167.589844 162.136719 166.753906 C 162.816406 165.917969 163.539062 165.117188 164.296875 164.351562 C 165.058594 163.589844 165.851562 162.863281 166.683594 162.179688 C 167.515625 161.492188 168.375 160.847656 169.269531 160.25 C 170.164062 159.648438 171.085938 159.09375 172.03125 158.585938 C 172.980469 158.074219 173.949219 157.613281 174.941406 157.199219 C 175.9375 156.785156 176.945312 156.421875 177.976562 156.109375 C 179.003906 155.792969 180.042969 155.53125 181.097656 155.320312 C 182.152344 155.109375 183.214844 154.953125 184.285156 154.847656 C 185.351562 154.742188 186.425781 154.6875 187.5 154.6875 C 188.574219 154.6875 189.648438 154.742188 190.714844 154.847656 C 191.785156 154.953125 192.847656 155.109375 193.902344 155.320312 C 194.957031 155.53125 195.996094 155.792969 197.023438 156.109375 C 198.054688 156.421875 199.0625 156.785156 200.058594 157.199219 C 201.050781 157.613281 202.019531 158.074219 202.96875 158.585938 C 203.914062 159.09375 204.835938 159.648438 205.730469 160.25 C 206.625 160.847656 207.484375 161.492188 208.316406 162.179688 C 209.148438 162.863281 209.941406 163.589844 210.703125 164.351562 C 211.460938 165.117188 212.183594 165.917969 212.863281 166.753906 C 213.546875 167.589844 214.183594 168.453125 214.78125 169.355469 C 215.378906 170.253906 215.929688 171.179688 216.4375 172.132812 C 216.945312 173.085938 217.402344 174.058594 217.816406 175.058594 C 218.226562 176.058594 218.585938 177.074219 218.898438 178.109375 C 219.210938 179.140625 219.472656 180.191406 219.683594 181.25 C 219.890625 182.308594 220.050781 183.378906 220.15625 184.453125 C 220.261719 185.527344 220.3125 186.605469 220.3125 187.6875 Z M 220.3125 187.6875 "/></g><g clip-rule="nonzero" clip-path="url(#clip3)"><path style=" stroke:none;fill-rule:nonzero;fill:rgb(65.098572%,65.098572%,65.098572%);fill-opacity:1;" d="M 318.75 187.6875 C 318.75 188.769531 318.699219 189.847656 318.59375 190.921875 C 318.488281 191.996094 318.328125 193.066406 318.121094 194.125 C 317.910156 195.183594 317.648438 196.234375 317.335938 197.265625 C 317.023438 198.300781 316.664062 199.316406 316.253906 200.316406 C 315.839844 201.316406 315.382812 202.289062 314.875 203.242188 C 314.367188 204.195312 313.816406 205.121094 313.21875 206.019531 C 312.621094 206.921875 311.984375 207.785156 311.300781 208.621094 C 310.621094 209.457031 309.898438 210.257812 309.140625 211.023438 C 308.378906 211.785156 307.585938 212.511719 306.753906 213.195312 C 305.921875 213.882812 305.0625 214.527344 304.167969 215.125 C 303.273438 215.726562 302.351562 216.28125 301.40625 216.789062 C 300.457031 217.300781 299.488281 217.761719 298.496094 218.175781 C 297.5 218.589844 296.492188 218.953125 295.460938 219.265625 C 294.433594 219.582031 293.394531 219.84375 292.339844 220.054688 C 291.285156 220.265625 290.222656 220.421875 289.152344 220.527344 C 288.085938 220.632812 287.011719 220.6875 285.9375 220.6875 C 284.863281 220.6875 283.789062 220.632812 282.722656 220.527344 C 281.652344 220.421875 280.589844 220.265625 279.535156 220.054688 C 278.480469 219.84375 277.441406 219.582031 276.414062 219.265625 C 275.382812 218.953125 274.375 218.589844 273.378906 218.175781 C 272.386719 217.761719 271.417969 217.300781 270.46875 216.789062 C 269.523438 216.28125 268.601562 215.726562 267.707031 215.125 C 266.8125 214.527344 265.953125 213.882812 265.121094 213.195312 C 264.289062 212.511719 263.496094 211.785156 262.734375 211.023438 C 261.976562 210.257812 261.253906 209.457031 260.574219 208.621094 C 259.890625 207.785156 259.25 206.921875 258.65625 206.019531 C 258.058594 205.121094 257.507812 204.195312 257 203.242188 C 256.492188 202.289062 256.035156 201.316406 255.621094 200.316406 C 255.210938 199.316406 254.851562 198.300781 254.539062 197.265625 C 254.226562 196.234375 253.964844 195.183594 253.753906 194.125 C 253.546875 193.066406 253.386719 191.996094 253.28125 190.921875 C 253.175781 189.847656 253.125 188.769531 253.125 187.6875 C 253.125 186.605469 253.175781 185.527344 253.28125 184.453125 C 253.386719 183.378906 253.546875 182.308594 253.753906 181.25 C 253.964844 180.191406 254.226562 179.140625 254.539062 178.109375 C 254.851562 177.074219 255.210938 176.058594 255.621094 175.058594 C 256.035156 174.058594 256.492188 173.085938 257 172.132812 C 257.507812 171.179688 258.058594 170.253906 258.65625 169.355469 C 259.25 168.453125 259.890625 167.589844 260.574219 166.753906 C 261.253906 165.917969 261.976562 165.117188 262.734375 164.351562 C 263.496094 163.589844 264.289062 162.863281 265.121094 162.179688 C 265.953125 161.492188 266.8125 160.847656 267.707031 160.25 C 268.601562 159.648438 269.523438 159.09375 270.46875 158.585938 C 271.417969 158.074219 272.386719 157.613281 273.378906 157.199219 C 274.375 156.785156 275.382812 156.421875 276.414062 156.109375 C 277.441406 155.792969 278.480469 155.53125 279.535156 155.320312 C 280.589844 155.109375 281.652344 154.953125 282.722656 154.847656 C 283.789062 154.742188 284.863281 154.6875 285.9375 154.6875 C 287.011719 154.6875 288.085938 154.742188 289.152344 154.847656 C 290.222656 154.953125 291.285156 155.109375 292.339844 155.320312 C 293.394531 155.53125 294.433594 155.792969 295.460938 156.109375 C 296.492188 156.421875 297.5 156.785156 298.496094 157.199219 C 299.488281 157.613281 300.457031 158.074219 301.40625 158.585938 C 302.351562 159.09375 303.273438 159.648438 304.167969 160.25 C 305.0625 160.847656 305.921875 161.492188 306.753906 162.179688 C 307.585938 162.863281 308.378906 163.589844 309.140625 164.351562 C 309.898438 165.117188 310.621094 165.917969 311.300781 166.753906 C 311.984375 167.589844 312.621094 168.453125 313.21875 169.355469 C 313.816406 170.253906 314.367188 171.179688 314.875 172.132812 C 315.382812 173.085938 315.839844 174.058594 316.253906 175.058594 C 316.664062 176.058594 317.023438 177.074219 317.335938 178.109375 C 317.648438 179.140625 317.910156 180.191406 318.121094 181.25 C 318.328125 182.308594 318.488281 183.378906 318.59375 184.453125 C 318.699219 185.527344 318.75 186.605469 318.75 187.6875 Z M 318.75 187.6875 "/></g><g clip-rule="nonzero" clip-path="url(#clip4)"><path style=" stroke:none;fill-rule:nonzero;fill:rgb(100%,100%,100%);fill-opacity:1;" d="M 89.0625 220.6875 C 87.988281 220.6875 86.914062 220.632812 85.847656 220.527344 C 84.777344 220.421875 83.714844 220.265625 82.660156 220.054688 C 81.605469 219.84375 80.566406 219.582031 79.539062 219.265625 C 78.507812 218.953125 77.5 218.589844 76.503906 218.175781 C 75.511719 217.761719 74.542969 217.300781 73.59375 216.789062 C 72.648438 216.28125 71.726562 215.726562 70.832031 215.125 C 69.9375 214.527344 69.078125 213.882812 68.246094 213.195312 C 67.414062 212.511719 66.621094 211.785156 65.859375 211.023438 C 65.101562 210.257812 64.378906 209.457031 63.699219 208.621094 C 63.015625 207.785156 62.375 206.921875 61.78125 206.019531 C 61.183594 205.121094 60.632812 204.195312 60.125 203.242188 C 59.617188 202.289062 59.160156 201.316406 58.746094 200.316406 C 58.335938 199.316406 57.976562 198.300781 57.664062 197.265625 C 57.351562 196.234375 57.089844 195.183594 56.878906 194.125 C 56.671875 193.066406 56.511719 191.996094 56.40625 190.921875 C 56.300781 189.847656 56.25 188.769531 56.25 187.6875 C 56.25 186.605469 56.300781 185.527344 56.40625 184.453125 C 56.511719 183.378906 56.671875 182.308594 56.878906 181.25 C 57.089844 180.191406 57.351562 179.140625 57.664062 178.109375 C 57.976562 177.074219 58.335938 176.058594 58.746094 175.058594 C 59.160156 174.058594 59.617188 173.085938 60.125 172.132812 C 60.632812 171.179688 61.183594 170.253906 61.78125 169.355469 C 62.375 168.453125 63.015625 167.589844 63.699219 166.753906 C 64.378906 165.917969 65.101562 165.117188 65.859375 164.351562 C 66.621094 163.589844 67.414062 162.863281 68.246094 162.179688 C 69.078125 161.492188 69.9375 160.847656 70.832031 160.25 C 71.726562 159.648438 72.648438 159.09375 73.59375 158.585938 C 74.542969 158.074219 75.511719 157.613281 76.503906 157.199219 C 77.5 156.785156 78.507812 156.421875 79.539062 156.109375 C 80.566406 155.792969 81.605469 155.53125 82.660156 155.320312 C 83.714844 155.109375 84.777344 154.953125 85.847656 154.847656 C 86.914062 154.742188 87.988281 154.6875 89.0625 154.6875 C 90.136719 154.6875 91.210938 154.742188 92.277344 154.847656 C 93.347656 154.953125 94.410156 155.109375 95.464844 155.320312 C 96.519531 155.53125 97.558594 155.792969 98.585938 156.109375 C 99.617188 156.421875 100.625 156.785156 101.621094 157.199219 C 102.613281 157.613281 103.582031 158.074219 104.53125 158.585938 C 105.476562 159.09375 106.398438 159.648438 107.292969 160.25 C 108.1875 160.847656 109.046875 161.492188 109.878906 162.179688 C 110.710938 162.863281 111.503906 163.589844 112.265625 164.351562 C 113.023438 165.117188 113.746094 165.917969 114.425781 166.753906 C 115.109375 167.589844 115.746094 168.453125 116.34375 169.355469 C 116.941406 170.253906 117.492188 171.179688 118 172.132812 C 118.507812 173.085938 118.964844 174.058594 119.378906 175.058594 C 119.789062 176.058594 120.148438 177.074219 120.460938 178.109375 C 120.773438 179.140625 121.035156 180.191406 121.246094 181.25 C 121.453125 182.308594 121.613281 183.378906 121.71875 184.453125 C 121.824219 185.527344 121.875 186.605469 121.875 187.6875 C 121.875 188.769531 121.824219 189.847656 121.71875 190.921875 C 121.613281 191.996094 121.453125 193.066406 121.246094 194.125 C 121.035156 195.183594 120.773438 196.234375 120.460938 197.265625 C 120.148438 198.300781 119.789062 199.316406 119.378906 200.316406 C 118.964844 201.316406 118.507812 202.289062 118 203.242188 C 117.492188 204.195312 116.941406 205.121094 116.34375 206.019531 C 115.746094 206.921875 115.109375 207.785156 114.425781 208.621094 C 113.746094 209.457031 113.023438 210.257812 112.265625 211.023438 C 111.503906 211.785156 110.710938 212.511719 109.878906 213.195312 C 109.046875 213.882812 108.1875 214.527344 107.292969 215.125 C 106.398438 215.726562 105.476562 216.28125 104.53125 216.789062 C 103.582031 217.300781 102.613281 217.761719 101.621094 218.175781 C 100.625 218.589844 99.617188 218.953125 98.585938 219.265625 C 97.558594 219.582031 96.519531 219.84375 95.464844 220.054688 C 94.410156 220.265625 93.347656 220.421875 92.277344 220.527344 C 91.210938 220.632812 90.136719 220.6875 89.0625 220.6875 Z M 89.0625 165.6875 C 88.347656 165.6875 87.632812 165.722656 86.917969 165.792969 C 86.207031 165.863281 85.496094 165.96875 84.792969 166.109375 C 84.09375 166.25 83.398438 166.425781 82.710938 166.636719 C 82.027344 166.84375 81.351562 167.085938 80.691406 167.363281 C 80.03125 167.636719 79.382812 167.945312 78.75 168.285156 C 78.117188 168.625 77.503906 168.996094 76.910156 169.394531 C 76.3125 169.796875 75.738281 170.222656 75.183594 170.679688 C 74.632812 171.136719 74.101562 171.621094 73.59375 172.132812 C 73.089844 172.640625 72.605469 173.175781 72.152344 173.730469 C 71.699219 174.289062 71.273438 174.867188 70.875 175.464844 C 70.476562 176.0625 70.109375 176.679688 69.769531 177.316406 C 69.433594 177.953125 69.125 178.601562 68.851562 179.269531 C 68.578125 179.933594 68.335938 180.613281 68.128906 181.300781 C 67.921875 181.992188 67.746094 182.6875 67.609375 183.394531 C 67.46875 184.101562 67.363281 184.8125 67.292969 185.53125 C 67.222656 186.25 67.1875 186.96875 67.1875 187.6875 C 67.1875 188.40625 67.222656 189.125 67.292969 189.84375 C 67.363281 190.5625 67.46875 191.273438 67.609375 191.980469 C 67.746094 192.6875 67.921875 193.382812 68.128906 194.074219 C 68.335938 194.761719 68.578125 195.441406 68.851562 196.105469 C 69.125 196.773438 69.433594 197.421875 69.769531 198.058594 C 70.109375 198.695312 70.476562 199.3125 70.875 199.910156 C 71.273438 200.507812 71.699219 201.085938 72.152344 201.644531 C 72.605469 202.199219 73.089844 202.734375 73.59375 203.242188 C 74.101562 203.753906 74.632812 204.238281 75.183594 204.695312 C 75.738281 205.152344 76.3125 205.578125 76.910156 205.980469 C 77.503906 206.378906 78.117188 206.75 78.75 207.089844 C 79.382812 207.429688 80.03125 207.738281 80.691406 208.011719 C 81.351562 208.289062 82.027344 208.53125 82.710938 208.738281 C 83.398438 208.949219 84.09375 209.125 84.792969 209.265625 C 85.496094 209.40625 86.207031 209.511719 86.917969 209.582031 C 87.632812 209.652344 88.347656 209.6875 89.0625 209.6875 C 89.777344 209.6875 90.492188 209.652344 91.207031 209.582031 C 91.917969 209.511719 92.628906 209.40625 93.332031 209.265625 C 94.03125 209.125 94.726562 208.949219 95.414062 208.738281 C 96.097656 208.53125 96.773438 208.289062 97.433594 208.011719 C 98.09375 207.738281 98.742188 207.429688 99.375 207.089844 C 100.007812 206.75 100.621094 206.378906 101.214844 205.980469 C 101.8125 205.578125 102.386719 205.152344 102.941406 204.695312 C 103.492188 204.238281 104.023438 203.753906 104.53125 203.242188 C 105.035156 202.734375 105.519531 202.199219 105.972656 201.644531 C 106.425781 201.085938 106.851562 200.507812 107.25 199.910156 C 107.648438 199.3125 108.015625 198.695312 108.355469 198.058594 C 108.691406 197.421875 109 196.773438 109.273438 196.105469 C 109.546875 195.441406 109.789062 194.761719 109.996094 194.074219 C 110.203125 193.382812 110.378906 192.6875 110.515625 191.980469 C 110.65625 191.273438 110.761719 190.5625 110.832031 189.84375 C 110.902344 189.125 110.9375 188.40625 110.9375 187.6875 C 110.9375 186.96875 110.902344 186.25 110.832031 185.53125 C 110.761719 184.8125 110.65625 184.101562 110.515625 183.394531 C 110.378906 182.6875 110.203125 181.992188 109.996094 181.300781 C 109.789062 180.613281 109.546875 179.933594 109.273438 179.269531 C 109 178.601562 108.691406 177.953125 108.355469 177.316406 C 108.015625 176.679688 107.648438 176.0625 107.25 175.464844 C 106.851562 174.867188 106.425781 174.289062 105.972656 173.730469 C 105.519531 173.175781 105.035156 172.640625 104.53125 172.132812 C 104.023438 171.621094 103.492188 171.136719 102.941406 170.679688 C 102.386719 170.222656 101.8125 169.796875 101.214844 169.394531 C 100.621094 168.996094 100.007812 168.625 99.375 168.285156 C 98.742188 167.945312 98.09375 167.636719 97.433594 167.363281 C 96.773438 167.085938 96.097656 166.84375 95.414062 166.636719 C 94.726562 166.425781 94.03125 166.25 93.332031 166.109375 C 92.628906 165.96875 91.917969 165.863281 91.207031 165.792969 C 90.492188 165.722656 89.777344 165.6875 89.0625 165.6875 Z M 89.0625 165.6875 "/></g><g clip-rule="nonzero" clip-path="url(#clip5)"><path style=" stroke:none;fill-rule:nonzero;fill:rgb(100%,100%,100%);fill-opacity:1;" d="M 187.5 220.6875 C 186.425781 220.6875 185.351562 220.632812 184.285156 220.527344 C 183.214844 220.421875 182.152344 220.265625 181.097656 220.054688 C 180.042969 219.84375 179.003906 219.582031 177.976562 219.265625 C 176.945312 218.953125 175.9375 218.589844 174.941406 218.175781 C 173.949219 217.761719 172.980469 217.300781 172.03125 216.789062 C 171.085938 216.28125 170.164062 215.726562 169.269531 215.125 C 168.375 214.527344 167.515625 213.882812 166.683594 213.195312 C 165.851562 212.511719 165.058594 211.785156 164.296875 211.023438 C 163.539062 210.257812 162.816406 209.457031 162.136719 208.621094 C 161.453125 207.785156 160.8125 206.921875 160.21875 206.019531 C 159.621094 205.121094 159.070312 204.195312 158.5625 203.242188 C 158.054688 202.289062 157.597656 201.316406 157.183594 200.316406 C 156.773438 199.316406 156.414062 198.300781 156.101562 197.265625 C 155.789062 196.234375 155.527344 195.183594 155.316406 194.125 C 155.109375 193.066406 154.949219 191.996094 154.84375 190.921875 C 154.738281 189.847656 154.6875 188.769531 154.6875 187.6875 C 154.6875 186.605469 154.738281 185.527344 154.84375 184.453125 C 154.949219 183.378906 155.109375 182.308594 155.316406 181.25 C 155.527344 180.191406 155.789062 179.140625 156.101562 178.109375 C 156.414062 177.074219 156.773438 176.058594 157.183594 175.058594 C 157.597656 174.058594 158.054688 173.085938 158.5625 172.132812 C 159.070312 171.179688 159.621094 170.253906 160.21875 169.355469 C 160.8125 168.453125 161.453125 167.589844 162.136719 166.753906 C 162.816406 165.917969 163.539062 165.117188 164.296875 164.351562 C 165.058594 163.589844 165.851562 162.863281 166.683594 162.179688 C 167.515625 161.492188 168.375 160.847656 169.269531 160.25 C 170.164062 159.648438 171.085938 159.09375 172.03125 158.585938 C 172.980469 158.074219 173.949219 157.613281 174.941406 157.199219 C 175.9375 156.785156 176.945312 156.421875 177.976562 156.109375 C 179.003906 155.792969 180.042969 155.53125 181.097656 155.320312 C 182.152344 155.109375 183.214844 154.953125 184.285156 154.847656 C 185.351562 154.742188 186.425781 154.6875 187.5 154.6875 C 188.574219 154.6875 189.648438 154.742188 190.714844 154.847656 C 191.785156 154.953125 192.847656 155.109375 193.902344 155.320312 C 194.957031 155.53125 195.996094 155.792969 197.023438 156.109375 C 198.054688 156.421875 199.0625 156.785156 200.058594 157.199219 C 201.050781 157.613281 202.019531 158.074219 202.96875 158.585938 C 203.914062 159.09375 204.835938 159.648438 205.730469 160.25 C 206.625 160.847656 207.484375 161.492188 208.316406 162.179688 C 209.148438 162.863281 209.941406 163.589844 210.703125 164.351562 C 211.460938 165.117188 212.183594 165.917969 212.863281 166.753906 C 213.546875 167.589844 214.183594 168.453125 214.78125 169.355469 C 215.378906 170.253906 215.929688 171.179688 216.4375 172.132812 C 216.945312 173.085938 217.402344 174.058594 217.816406 175.058594 C 218.226562 176.058594 218.585938 177.074219 218.898438 178.109375 C 219.210938 179.140625 219.472656 180.191406 219.683594 181.25 C 219.890625 182.308594 220.050781 183.378906 220.15625 184.453125 C 220.261719 185.527344 220.3125 186.605469 220.3125 187.6875 C 220.3125 188.769531 220.261719 189.847656 220.15625 190.921875 C 220.050781 191.996094 219.890625 193.066406 219.683594 194.125 C 219.472656 195.183594 219.210938 196.234375 218.898438 197.265625 C 218.585938 198.300781 218.226562 199.316406 217.816406 200.316406 C 217.402344 201.316406 216.945312 202.289062 216.4375 203.242188 C 215.929688 204.195312 215.378906 205.121094 214.78125 206.019531 C 214.183594 206.921875 213.546875 207.785156 212.863281 208.621094 C 212.183594 209.457031 211.460938 210.257812 210.703125 211.023438 C 209.941406 211.785156 209.148438 212.511719 208.316406 213.195312 C 207.484375 213.882812 206.625 214.527344 205.730469 215.125 C 204.835938 215.726562 203.914062 216.28125 202.96875 216.789062 C 202.019531 217.300781 201.050781 217.761719 200.058594 218.175781 C 199.0625 218.589844 198.054688 218.953125 197.023438 219.265625 C 195.996094 219.582031 194.957031 219.84375 193.902344 220.054688 C 192.847656 220.265625 191.785156 220.421875 190.714844 220.527344 C 189.648438 220.632812 188.574219 220.6875 187.5 220.6875 Z M 187.5 165.6875 C 186.785156 165.6875 186.070312 165.722656 185.355469 165.792969 C 184.644531 165.863281 183.933594 165.96875 183.230469 166.109375 C 182.53125 166.25 181.835938 166.425781 181.148438 166.636719 C 180.464844 166.84375 179.789062 167.085938 179.128906 167.363281 C 178.46875 167.636719 177.820312 167.945312 177.1875 168.285156 C 176.554688 168.625 175.941406 168.996094 175.347656 169.394531 C 174.75 169.796875 174.175781 170.222656 173.621094 170.679688 C 173.070312 171.136719 172.539062 171.621094 172.03125 172.132812 C 171.527344 172.640625 171.042969 173.175781 170.589844 173.730469 C 170.136719 174.289062 169.710938 174.867188 169.3125 175.464844 C 168.914062 176.0625 168.546875 176.679688 168.207031 177.316406 C 167.871094 177.953125 167.5625 178.601562 167.289062 179.269531 C 167.015625 179.933594 166.773438 180.613281 166.566406 181.300781 C 166.359375 181.992188 166.183594 182.6875 166.046875 183.394531 C 165.90625 184.101562 165.800781 184.8125 165.730469 185.53125 C 165.660156 186.25 165.625 186.96875 165.625 187.6875 C 165.625 188.40625 165.660156 189.125 165.730469 189.84375 C 165.800781 190.5625 165.90625 191.273438 166.046875 191.980469 C 166.183594 192.6875 166.359375 193.382812 166.566406 194.074219 C 166.773438 194.761719 167.015625 195.441406 167.289062 196.105469 C 167.5625 196.773438 167.871094 197.421875 168.207031 198.058594 C 168.546875 198.695312 168.914062 199.3125 169.3125 199.910156 C 169.710938 200.507812 170.136719 201.085938 170.589844 201.644531 C 171.042969 202.199219 171.527344 202.734375 172.03125 203.242188 C 172.539062 203.753906 173.070312 204.238281 173.621094 204.695312 C 174.175781 205.152344 174.75 205.578125 175.347656 205.980469 C 175.941406 206.378906 176.554688 206.75 177.1875 207.089844 C 177.820312 207.429688 178.46875 207.738281 179.128906 208.011719 C 179.789062 208.289062 180.464844 208.53125 181.148438 208.738281 C 181.835938 208.949219 182.53125 209.125 183.230469 209.265625 C 183.933594 209.40625 184.644531 209.511719 185.355469 209.582031 C 186.070312 209.652344 186.785156 209.6875 187.5 209.6875 C 188.214844 209.6875 188.929688 209.652344 189.644531 209.582031 C 190.355469 209.511719 191.066406 209.40625 191.765625 209.265625 C 192.46875 209.125 193.164062 208.949219 193.851562 208.738281 C 194.535156 208.53125 195.210938 208.289062 195.871094 208.011719 C 196.53125 207.738281 197.179688 207.429688 197.8125 207.089844 C 198.445312 206.75 199.058594 206.378906 199.652344 205.980469 C 200.25 205.578125 200.824219 205.152344 201.378906 204.695312 C 201.929688 204.238281 202.460938 203.753906 202.96875 203.242188 C 203.472656 202.734375 203.953125 202.199219 204.410156 201.644531 C 204.863281 201.085938 205.289062 200.507812 205.6875 199.910156 C 206.085938 199.3125 206.453125 198.695312 206.792969 198.058594 C 207.128906 197.421875 207.4375 196.773438 207.710938 196.105469 C 207.984375 195.441406 208.226562 194.761719 208.433594 194.074219 C 208.640625 193.382812 208.816406 192.6875 208.953125 191.980469 C 209.09375 191.273438 209.199219 190.5625 209.269531 189.84375 C 209.339844 189.125 209.375 188.40625 209.375 187.6875 C 209.375 186.96875 209.339844 186.25 209.269531 185.53125 C 209.199219 184.8125 209.09375 184.101562 208.953125 183.394531 C 208.816406 182.6875 208.640625 181.992188 208.433594 181.300781 C 208.226562 180.613281 207.984375 179.933594 207.710938 179.269531 C 207.4375 178.601562 207.128906 177.953125 206.792969 177.316406 C 206.453125 176.679688 206.085938 176.0625 205.6875 175.464844 C 205.289062 174.867188 204.863281 174.289062 204.410156 173.730469 C 203.953125 173.175781 203.472656 172.640625 202.96875 172.132812 C 202.460938 171.621094 201.929688 171.136719 201.378906 170.679688 C 200.824219 170.222656 200.25 169.796875 199.652344 169.394531 C 199.058594 168.996094 198.445312 168.625 197.8125 168.285156 C 197.179688 167.945312 196.53125 167.636719 195.871094 167.363281 C 195.210938 167.085938 194.535156 166.84375 193.851562 166.636719 C 193.164062 166.425781 192.46875 166.25 191.765625 166.109375 C 191.066406 165.96875 190.355469 165.863281 189.644531 165.792969 C 188.929688 165.722656 188.214844 165.6875 187.5 165.6875 Z M 187.5 165.6875 "/></g><g clip-rule="nonzero" clip-path="url(#clip6)"><path style=" stroke:none;fill-rule:nonzero;fill:rgb(100%,100%,100%);fill-opacity:1;" d="M 285.9375 220.6875 C 284.863281 220.6875 283.789062 220.632812 282.722656 220.527344 C 281.652344 220.421875 280.589844 220.265625 279.535156 220.054688 C 278.480469 219.84375 277.441406 219.582031 276.414062 219.265625 C 275.382812 218.953125 274.375 218.589844 273.378906 218.175781 C 272.386719 217.761719 271.417969 217.300781 270.46875 216.789062 C 269.523438 216.28125 268.601562 215.726562 267.707031 215.125 C 266.8125 214.527344 265.953125 213.882812 265.121094 213.195312 C 264.289062 212.511719 263.496094 211.785156 262.734375 211.023438 C 261.976562 210.257812 261.253906 209.457031 260.574219 208.621094 C 259.890625 207.785156 259.25 206.921875 258.65625 206.019531 C 258.058594 205.121094 257.507812 204.195312 257 203.242188 C 256.492188 202.289062 256.035156 201.316406 255.621094 200.316406 C 255.210938 199.316406 254.851562 198.300781 254.539062 197.265625 C 254.226562 196.234375 253.964844 195.183594 253.753906 194.125 C 253.546875 193.066406 253.386719 191.996094 253.28125 190.921875 C 253.175781 189.847656 253.125 188.769531 253.125 187.6875 C 253.125 186.605469 253.175781 185.527344 253.28125 184.453125 C 253.386719 183.378906 253.546875 182.308594 253.753906 181.25 C 253.964844 180.191406 254.226562 179.140625 254.539062 178.109375 C 254.851562 177.074219 255.210938 176.058594 255.621094 175.058594 C 256.035156 174.058594 256.492188 173.085938 257 172.132812 C 257.507812 171.179688 258.058594 170.253906 258.65625 169.355469 C 259.25 168.453125 259.890625 167.589844 260.574219 166.753906 C 261.253906 165.917969 261.976562 165.117188 262.734375 164.351562 C 263.496094 163.589844 264.289062 162.863281 265.121094 162.179688 C 265.953125 161.492188 266.8125 160.847656 267.707031 160.25 C 268.601562 159.648438 269.523438 159.09375 270.46875 158.585938 C 271.417969 158.074219 272.386719 157.613281 273.378906 157.199219 C 274.375 156.785156 275.382812 156.421875 276.414062 156.109375 C 277.441406 155.792969 278.480469 155.53125 279.535156 155.320312 C 280.589844 155.109375 281.652344 154.953125 282.722656 154.847656 C 283.789062 154.742188 284.863281 154.6875 285.9375 154.6875 C 287.011719 154.6875 288.085938 154.742188 289.152344 154.847656 C 290.222656 154.953125 291.285156 155.109375 292.339844 155.320312 C 293.394531 155.53125 294.433594 155.792969 295.460938 156.109375 C 296.492188 156.421875 297.5 156.785156 298.496094 157.199219 C 299.488281 157.613281 300.457031 158.074219 301.40625 158.585938 C 302.351562 159.09375 303.273438 159.648438 304.167969 160.25 C 305.0625 160.847656 305.921875 161.492188 306.753906 162.179688 C 307.585938 162.863281 308.378906 163.589844 309.140625 164.351562 C 309.898438 165.117188 310.621094 165.917969 311.300781 166.753906 C 311.984375 167.589844 312.621094 168.453125 313.21875 169.355469 C 313.816406 170.253906 314.367188 171.179688 314.875 172.132812 C 315.382812 173.085938 315.839844 174.058594 316.253906 175.058594 C 316.664062 176.058594 317.023438 177.074219 317.335938 178.109375 C 317.648438 179.140625 317.910156 180.191406 318.121094 181.25 C 318.328125 182.308594 318.488281 183.378906 318.59375 184.453125 C 318.699219 185.527344 318.75 186.605469 318.75 187.6875 C 318.75 188.769531 318.699219 189.847656 318.59375 190.921875 C 318.488281 191.996094 318.328125 193.066406 318.121094 194.125 C 317.910156 195.183594 317.648438 196.234375 317.335938 197.265625 C 317.023438 198.300781 316.664062 199.316406 316.253906 200.316406 C 315.839844 201.316406 315.382812 202.289062 314.875 203.242188 C 314.367188 204.195312 313.816406 205.121094 313.21875 206.019531 C 312.621094 206.921875 311.984375 207.785156 311.300781 208.621094 C 310.621094 209.457031 309.898438 210.257812 309.140625 211.023438 C 308.378906 211.785156 307.585938 212.511719 306.753906 213.195312 C 305.921875 213.882812 305.0625 214.527344 304.167969 215.125 C 303.273438 215.726562 302.351562 216.28125 301.40625 216.789062 C 300.457031 217.300781 299.488281 217.761719 298.496094 218.175781 C 297.5 218.589844 296.492188 218.953125 295.460938 219.265625 C 294.433594 219.582031 293.394531 219.84375 292.339844 220.054688 C 291.285156 220.265625 290.222656 220.421875 289.152344 220.527344 C 288.085938 220.632812 287.011719 220.6875 285.9375 220.6875 Z M 285.9375 165.6875 C 285.222656 165.6875 284.507812 165.722656 283.792969 165.792969 C 283.082031 165.863281 282.371094 165.96875 281.667969 166.109375 C 280.96875 166.25 280.273438 166.425781 279.585938 166.636719 C 278.902344 166.84375 278.226562 167.085938 277.566406 167.363281 C 276.90625 167.636719 276.257812 167.945312 275.625 168.285156 C 274.992188 168.625 274.378906 168.996094 273.785156 169.394531 C 273.1875 169.796875 272.613281 170.222656 272.058594 170.679688 C 271.507812 171.136719 270.976562 171.621094 270.46875 172.132812 C 269.964844 172.640625 269.480469 173.175781 269.027344 173.730469 C 268.574219 174.289062 268.148438 174.867188 267.75 175.464844 C 267.351562 176.0625 266.984375 176.679688 266.644531 177.316406 C 266.308594 177.953125 266 178.601562 265.726562 179.269531 C 265.453125 179.933594 265.210938 180.613281 265.003906 181.300781 C 264.796875 181.992188 264.621094 182.6875 264.484375 183.394531 C 264.34375 184.101562 264.238281 184.8125 264.167969 185.53125 C 264.097656 186.25 264.0625 186.96875 264.0625 187.6875 C 264.0625 188.40625 264.097656 189.125 264.167969 189.84375 C 264.238281 190.5625 264.34375 191.273438 264.484375 191.980469 C 264.621094 192.6875 264.796875 193.382812 265.003906 194.074219 C 265.210938 194.761719 265.453125 195.441406 265.726562 196.105469 C 266 196.773438 266.308594 197.421875 266.644531 198.058594 C 266.984375 198.695312 267.351562 199.3125 267.75 199.910156 C 268.148438 200.507812 268.574219 201.085938 269.027344 201.644531 C 269.480469 202.199219 269.964844 202.734375 270.46875 203.242188 C 270.976562 203.753906 271.507812 204.238281 272.058594 204.695312 C 272.613281 205.152344 273.1875 205.578125 273.785156 205.980469 C 274.378906 206.378906 274.992188 206.75 275.625 207.089844 C 276.257812 207.429688 276.90625 207.738281 277.566406 208.011719 C 278.226562 208.289062 278.902344 208.53125 279.585938 208.738281 C 280.273438 208.949219 280.96875 209.125 281.667969 209.265625 C 282.371094 209.40625 283.082031 209.511719 283.792969 209.582031 C 284.507812 209.652344 285.222656 209.6875 285.9375 209.6875 C 286.652344 209.6875 287.367188 209.652344 288.082031 209.582031 C 288.792969 209.511719 289.503906 209.40625 290.203125 209.265625 C 290.90625 209.125 291.601562 208.949219 292.289062 208.738281 C 292.972656 208.53125 293.648438 208.289062 294.308594 208.011719 C 294.96875 207.738281 295.617188 207.429688 296.25 207.089844 C 296.882812 206.75 297.496094 206.378906 298.089844 205.980469 C 298.6875 205.578125 299.261719 205.152344 299.816406 204.695312 C 300.367188 204.238281 300.898438 203.753906 301.40625 203.242188 C 301.910156 202.734375 302.394531 202.199219 302.847656 201.644531 C 303.300781 201.085938 303.726562 200.507812 304.125 199.910156 C 304.523438 199.3125 304.890625 198.695312 305.230469 198.058594 C 305.566406 197.421875 305.875 196.773438 306.148438 196.105469 C 306.421875 195.441406 306.664062 194.761719 306.871094 194.074219 C 307.078125 193.382812 307.253906 192.6875 307.390625 191.980469 C 307.53125 191.273438 307.636719 190.5625 307.707031 189.84375 C 307.777344 189.125 307.8125 188.40625 307.8125 187.6875 C 307.8125 186.96875 307.777344 186.25 307.707031 185.53125 C 307.636719 184.8125 307.53125 184.101562 307.390625 183.394531 C 307.253906 182.6875 307.078125 181.992188 306.871094 181.300781 C 306.664062 180.613281 306.421875 179.933594 306.148438 179.269531 C 305.875 178.601562 305.566406 177.953125 305.230469 177.316406 C 304.890625 176.679688 304.523438 176.0625 304.125 175.464844 C 303.726562 174.867188 303.300781 174.289062 302.847656 173.730469 C 302.394531 173.175781 301.910156 172.640625 301.40625 172.132812 C 300.898438 171.621094 300.367188 171.136719 299.816406 170.679688 C 299.261719 170.222656 298.6875 169.796875 298.089844 169.394531 C 297.496094 168.996094 296.882812 168.625 296.25 168.285156 C 295.617188 167.945312 294.96875 167.636719 294.308594 167.363281 C 293.648438 167.085938 292.972656 166.84375 292.289062 166.636719 C 291.601562 166.425781 290.90625 166.25 290.203125 166.109375 C 289.503906 165.96875 288.792969 165.863281 288.082031 165.792969 C 287.367188 165.722656 286.652344 165.6875 285.9375 165.6875 Z M 285.9375 165.6875 "/></g></g></svg>