<?xml version="1.0" encoding="UTF-8"?><svg id="last" xmlns="http://www.w3.org/2000/svg" xmlns:xlink="http://www.w3.org/1999/xlink" contentScriptType="text/ecmascript" zoomAndPan="magnify" contentStyleType="text/css" viewBox="0 0 375 374.999991" preserveAspectRatio="xMidYMid meet" version="1.2"><defs><clipPath xml:id="clip1" id="clip1"><path d="M 128 81.136719 L 288.941406 81.136719 L 288.941406 294.136719 L 128 294.136719 Z M 128 81.136719 "/></clipPath><clipPath xml:id="clip2" id="clip2"><path d="M 86.054688 81.136719 L 115 81.136719 L 115 294 L 86.054688 294 Z M 86.054688 81.136719 "/></clipPath></defs><g xml:id="surface1" id="surface1"><path style=" stroke:none;fill-rule:nonzero;fill-opacity:1;" d="M 187.5 0 C 84.113281 0 0 84.113281 0 187.5 C 0 290.886719 84.113281 375 187.5 375 C 290.886719 375 375 290.886719 375 187.5 C 375 84.113281 290.886719 0 187.5 0 Z M 187.5 0 "/><g clip-rule="nonzero" clip-path="url(#clip1)"><path style=" stroke:none;fill-rule:nonzero;fill:rgb(100%,100%,100%);fill-opacity:1;" d="M 273.058594 81.136719 C 282.546875 81.136719 288.871094 89.125 288.871094 101.9375 L 288.871094 273.335938 C 288.871094 279.660156 287.042969 284.816406 284.378906 288.476562 C 281.714844 292.140625 277.386719 294.136719 272.722656 294.136719 C 268.394531 294.136719 263.566406 292.304688 258.574219 288.976562 L 140.203125 207.4375 C 132.542969 202.113281 128.382812 195.125 128.382812 187.636719 C 128.382812 179.980469 132.710938 172.992188 140.203125 167.832031 L 258.738281 86.292969 C 263.566406 82.964844 268.726562 81.136719 273.058594 81.136719 Z M 273.058594 81.136719 "/></g><g clip-rule="nonzero" clip-path="url(#clip2)"><path style=" stroke:none;fill-rule:nonzero;fill:rgb(100%,100%,100%);fill-opacity:1;" d="M 85.761719 282.320312 L 85.761719 92.785156 C 85.761719 86.292969 90.757812 81.136719 97.25 81.136719 L 102.078125 81.136719 C 108.570312 81.136719 114.0625 86.292969 114.0625 92.785156 L 114.0625 282.320312 C 114.0625 288.8125 108.570312 293.96875 102.242188 293.96875 L 97.082031 293.96875 C 90.589844 294.136719 85.761719 288.8125 85.761719 282.320312 Z M 85.761719 282.320312 "/></g></g></svg>