<?xml version="1.0" encoding="UTF-8"?><svg id="next" xmlns="http://www.w3.org/2000/svg" xmlns:xlink="http://www.w3.org/1999/xlink" contentScriptType="text/ecmascript" zoomAndPan="magnify" contentStyleType="text/css" viewBox="0 0 375 374.999991" preserveAspectRatio="xMidYMid meet" version="1.2"><defs><clipPath xml:id="clip1" id="clip1"><path d="M 86.054688 81.136719 L 247 81.136719 L 247 294.136719 L 86.054688 294.136719 Z M 86.054688 81.136719 "/></clipPath><clipPath xml:id="clip2" id="clip2"><path d="M 260 81.136719 L 289.304688 81.136719 L 289.304688 294 L 260 294 Z M 260 81.136719 "/></clipPath></defs><g xml:id="surface1" id="surface1"><path style=" stroke:none;fill-rule:nonzero;fill-opacity:1;" d="M 187.5 0 C 84.113281 0 0 84.113281 0 187.5 C 0 290.886719 84.113281 375 187.5 375 C 290.886719 375 375 290.886719 375 187.5 C 375 84.113281 290.886719 0 187.5 0 Z M 187.5 0 "/><g clip-rule="nonzero" clip-path="url(#clip1)"><path style=" stroke:none;fill-rule:nonzero;fill:rgb(100%,100%,100%);fill-opacity:1;" d="M 101.941406 81.136719 C 92.453125 81.136719 86.125 89.125 86.125 101.9375 L 86.125 273.335938 C 86.125 279.660156 87.957031 284.816406 90.621094 288.476562 C 93.285156 292.140625 97.613281 294.136719 102.273438 294.136719 C 106.601562 294.136719 111.429688 292.304688 116.425781 288.976562 L 234.796875 207.4375 C 242.453125 202.113281 246.617188 195.125 246.617188 187.636719 C 246.617188 179.980469 242.289062 172.992188 234.796875 167.835938 L 116.257812 86.296875 C 111.429688 82.96875 106.269531 81.136719 101.941406 81.136719 Z M 101.941406 81.136719 "/></g><g clip-rule="nonzero" clip-path="url(#clip2)"><path style=" stroke:none;fill-rule:nonzero;fill:rgb(100%,100%,100%);fill-opacity:1;" d="M 289.234375 282.320312 L 289.234375 92.785156 C 289.234375 86.296875 284.242188 81.136719 277.75 81.136719 L 272.921875 81.136719 C 266.425781 81.136719 260.933594 86.296875 260.933594 92.785156 L 260.933594 282.320312 C 260.933594 288.8125 266.425781 293.96875 272.753906 293.96875 L 277.914062 293.96875 C 284.40625 294.136719 289.234375 288.8125 289.234375 282.320312 Z M 289.234375 282.320312 "/></g></g></svg>