<?xml version="1.0" encoding="UTF-8"?><svg id="playbtn" xmlns="http://www.w3.org/2000/svg" xmlns:xlink="http://www.w3.org/1999/xlink" contentScriptType="text/ecmascript" zoomAndPan="magnify" contentStyleType="text/css" viewBox="0 0 375 374.999991" preserveAspectRatio="xMidYMid meet" version="1.2"><defs><clipPath xml:id="clip1" id="clip1"><path d="M 127.414062 80.386719 L 287.164062 80.386719 L 287.164062 293.386719 L 127.414062 293.386719 Z M 127.414062 80.386719 "/></clipPath></defs><g xml:id="surface1" id="surface1"><path style=" stroke:none;fill-rule:nonzero;fill-opacity:1;" d="M 187.5 0 C 84.113281 0 0 84.113281 0 187.5 C 0 290.886719 84.113281 375 187.5 375 C 290.886719 375 375 290.886719 375 187.5 C 375 84.113281 290.886719 0 187.5 0 Z M 187.5 0 "/><g clip-rule="nonzero" clip-path="url(#clip1)"><path style=" stroke:none;fill-rule:nonzero;fill:rgb(100%,100%,100%);fill-opacity:1;" d="M 141.695312 293.246094 C 146.34375 293.246094 151.660156 291.253906 157.140625 287.4375 L 275.375 206.566406 C 283.011719 201.417969 287.164062 194.277344 287.164062 186.804688 C 287.164062 179.332031 283.011719 172.191406 275.375 167.042969 L 157.304688 86.171875 C 151.824219 82.351562 146.34375 80.523438 141.695312 80.523438 C 132.894531 80.523438 127.414062 87.664062 127.414062 99.457031 L 127.414062 274.316406 C 127.414062 286.105469 132.894531 293.246094 141.695312 293.246094 Z M 141.695312 293.246094 "/></g></g></svg>