<?xml version="1.0" encoding="UTF-8"?><svg id="pause" xmlns="http://www.w3.org/2000/svg" xmlns:xlink="http://www.w3.org/1999/xlink" contentScriptType="text/ecmascript" zoomAndPan="magnify" contentStyleType="text/css" viewBox="0 0 375 374.999991" preserveAspectRatio="xMidYMid meet" version="1.2"><defs><clipPath xml:id="clip1" id="clip1"><path d="M 205 85.339844 L 276 85.339844 L 276 289.339844 L 205 289.339844 Z M 205 85.339844 "/></clipPath><clipPath xml:id="clip2" id="clip2"><path d="M 99 85.339844 L 170 85.339844 L 170 289.339844 L 99 289.339844 Z M 99 85.339844 "/></clipPath></defs><g xml:id="surface1" id="surface1"><path style=" stroke:none;fill-rule:nonzero;fill:fill-opacity:1;" d="M 187.5 0 C 84.113281 0 0 84.113281 0 187.5 C 0 290.886719 84.113281 375 187.5 375 C 290.886719 375 375 290.886719 375 187.5 C 375 84.113281 290.886719 0 187.5 0 Z M 187.5 0 "/><g clip-rule="nonzero" clip-path="url(#clip1)"><path style=" stroke:none;fill-rule:nonzero;fill:rgb(100%,100%,100%);fill-opacity:1;" d="M 263.734375 85.371094 L 217.574219 85.371094 C 210.976562 85.371094 205.636719 90.703125 205.636719 97.285156 L 205.636719 277.390625 C 205.636719 283.972656 210.976562 289.304688 217.574219 289.304688 L 263.734375 289.304688 C 270.324219 289.304688 275.667969 283.972656 275.667969 277.390625 L 275.667969 97.285156 C 275.671875 90.703125 270.328125 85.371094 263.734375 85.371094 Z M 263.734375 85.371094 "/></g><g clip-rule="nonzero" clip-path="url(#clip2)"><path style=" stroke:none;fill-rule:nonzero;fill:rgb(100%,100%,100%);fill-opacity:1;" d="M 157.421875 85.371094 L 111.257812 85.371094 C 104.667969 85.371094 99.324219 90.703125 99.324219 97.285156 L 99.324219 277.394531 C 99.324219 283.976562 104.667969 289.308594 111.257812 289.308594 L 157.421875 289.308594 C 164.015625 289.308594 169.355469 283.976562 169.355469 277.394531 L 169.355469 97.285156 C 169.355469 90.703125 164.015625 85.371094 157.421875 85.371094 Z M 157.421875 85.371094 "/></g></g></svg>