<?xml version="1.0" encoding="UTF-8"?><svg id="menu" xmlns="http://www.w3.org/2000/svg" xmlns:xlink="http://www.w3.org/1999/xlink" contentScriptType="text/ecmascript" zoomAndPan="magnify" contentStyleType="text/css" viewBox="0 0 375 375" preserveAspectRatio="xMidYMid meet" version="1.2"><defs><clipPath xml:id="clip1" id="clip1"><path d="M 76 75.042969 L 299 75.042969 L 299 139 L 76 139 Z M 76 75.042969 "/></clipPath><clipPath xml:id="clip2" id="clip2"><path d="M 76 236 L 299 236 L 299 300.042969 L 76 300.042969 Z M 76 236 "/></clipPath></defs><g xml:id="surface1" id="surface1"><path style=" stroke:none;fill-rule:nonzero;fill-opacity:1;" d="M 187.5 0 C 84.113281 0 0 84.113281 0 187.5 C 0 290.886719 84.113281 375 187.5 375 C 290.886719 375 375 290.886719 375 187.5 C 375 84.113281 290.886719 0 187.5 0 Z M 187.5 0 "/><g clip-rule="nonzero" clip-path="url(#clip1)"><path style=" stroke:none;fill-rule:nonzero;fill:rgb(100%,100%,100%);fill-opacity:1;" d="M 288.5 75.042969 L 86.574219 75.042969 C 85.898438 75.042969 85.226562 75.109375 84.5625 75.242188 C 83.898438 75.375 83.253906 75.570312 82.625 75.832031 C 82 76.089844 81.40625 76.40625 80.84375 76.785156 C 80.277344 77.160156 79.757812 77.589844 79.277344 78.066406 C 78.796875 78.546875 78.371094 79.066406 77.992188 79.628906 C 77.617188 80.195312 77.296875 80.789062 77.039062 81.414062 C 76.777344 82.039062 76.582031 82.683594 76.449219 83.351562 C 76.3125 84.015625 76.246094 84.683594 76.246094 85.363281 L 76.246094 127.867188 C 76.246094 128.546875 76.3125 129.21875 76.445312 129.886719 C 76.578125 130.550781 76.773438 131.199219 77.03125 131.824219 C 77.289062 132.453125 77.609375 133.046875 77.984375 133.613281 C 78.363281 134.175781 78.789062 134.699219 79.269531 135.179688 C 79.75 135.660156 80.269531 136.089844 80.835938 136.46875 C 81.398438 136.84375 81.996094 137.164062 82.621094 137.425781 C 83.246094 137.6875 83.894531 137.882812 84.558594 138.015625 C 85.226562 138.148438 85.898438 138.21875 86.574219 138.21875 L 288.5 138.21875 C 289.179688 138.21875 289.851562 138.152344 290.515625 138.019531 C 291.183594 137.886719 291.828125 137.6875 292.457031 137.429688 C 293.082031 137.167969 293.679688 136.847656 294.246094 136.472656 C 294.808594 136.09375 295.332031 135.664062 295.8125 135.183594 C 296.292969 134.703125 296.71875 134.179688 297.097656 133.617188 C 297.472656 133.050781 297.792969 132.453125 298.050781 131.828125 C 298.3125 131.199219 298.507812 130.550781 298.640625 129.886719 C 298.773438 129.21875 298.839844 128.546875 298.839844 127.867188 L 298.839844 85.363281 C 298.835938 84.683594 298.769531 84.011719 298.636719 83.347656 C 298.503906 82.683594 298.308594 82.039062 298.046875 81.410156 C 297.785156 80.785156 297.46875 80.191406 297.089844 79.628906 C 296.710938 79.0625 296.285156 78.542969 295.804688 78.0625 C 295.324219 77.585938 294.800781 77.15625 294.238281 76.78125 C 293.671875 76.40625 293.078125 76.085938 292.453125 75.828125 C 291.824219 75.566406 291.179688 75.371094 290.515625 75.242188 C 289.847656 75.109375 289.175781 75.042969 288.5 75.042969 Z M 116.335938 115.152344 C 115.777344 115.152344 115.226562 115.097656 114.679688 114.988281 C 114.132812 114.882812 113.601562 114.722656 113.085938 114.507812 C 112.570312 114.296875 112.082031 114.035156 111.617188 113.726562 C 111.15625 113.417969 110.726562 113.066406 110.332031 112.671875 C 109.9375 112.277344 109.585938 111.847656 109.277344 111.386719 C 108.964844 110.921875 108.703125 110.433594 108.492188 109.917969 C 108.277344 109.40625 108.117188 108.875 108.007812 108.328125 C 107.898438 107.78125 107.84375 107.230469 107.84375 106.671875 C 107.84375 106.117188 107.898438 105.5625 108.007812 105.015625 C 108.113281 104.472656 108.273438 103.941406 108.488281 103.425781 C 108.703125 102.910156 108.960938 102.421875 109.273438 101.957031 C 109.582031 101.496094 109.933594 101.066406 110.328125 100.671875 C 110.722656 100.277344 111.148438 99.925781 111.613281 99.617188 C 112.078125 99.308594 112.566406 99.046875 113.082031 98.832031 C 113.59375 98.621094 114.125 98.460938 114.671875 98.351562 C 115.21875 98.242188 115.769531 98.1875 116.328125 98.1875 C 116.886719 98.1875 117.4375 98.242188 117.984375 98.351562 C 118.53125 98.460938 119.058594 98.621094 119.574219 98.835938 C 120.089844 99.050781 120.578125 99.3125 121.042969 99.621094 C 121.503906 99.929688 121.933594 100.28125 122.328125 100.675781 C 122.71875 101.070312 123.070312 101.5 123.382812 101.964844 C 123.691406 102.425781 123.953125 102.917969 124.164062 103.429688 C 124.375 103.945312 124.535156 104.476562 124.644531 105.023438 C 124.753906 105.570312 124.808594 106.121094 124.804688 106.679688 C 124.804688 107.234375 124.75 107.785156 124.640625 108.332031 C 124.53125 108.875 124.371094 109.40625 124.15625 109.917969 C 123.941406 110.429688 123.683594 110.917969 123.371094 111.382812 C 123.0625 111.84375 122.710938 112.269531 122.320312 112.664062 C 121.925781 113.058594 121.5 113.40625 121.035156 113.71875 C 120.574219 114.027344 120.085938 114.289062 119.574219 114.5 C 119.058594 114.714844 118.53125 114.875 117.984375 114.984375 C 117.441406 115.09375 116.890625 115.148438 116.335938 115.152344 Z M 116.335938 115.152344 "/></g><path style=" stroke:none;fill-rule:nonzero;fill:rgb(100%,100%,100%);fill-opacity:1;" d="M 288.5 155.953125 L 86.574219 155.953125 C 85.898438 155.957031 85.226562 156.023438 84.5625 156.15625 C 83.898438 156.289062 83.25 156.484375 82.625 156.746094 C 82 157.007812 81.40625 157.324219 80.839844 157.703125 C 80.277344 158.078125 79.757812 158.507812 79.277344 158.984375 C 78.796875 159.464844 78.371094 159.988281 77.992188 160.550781 C 77.617188 161.113281 77.296875 161.707031 77.039062 162.335938 C 76.777344 162.960938 76.582031 163.605469 76.449219 164.269531 C 76.3125 164.933594 76.246094 165.605469 76.246094 166.285156 L 76.246094 208.800781 C 76.246094 209.476562 76.3125 210.148438 76.449219 210.8125 C 76.582031 211.480469 76.777344 212.125 77.039062 212.75 C 77.296875 213.375 77.617188 213.972656 77.992188 214.535156 C 78.371094 215.097656 78.796875 215.621094 79.277344 216.097656 C 79.757812 216.578125 80.277344 217.007812 80.839844 217.382812 C 81.40625 217.761719 82 218.078125 82.625 218.339844 C 83.25 218.597656 83.898438 218.796875 84.5625 218.929688 C 85.226562 219.0625 85.898438 219.128906 86.574219 219.128906 L 288.5 219.128906 C 289.175781 219.128906 289.847656 219.0625 290.515625 218.929688 C 291.179688 218.796875 291.824219 218.601562 292.453125 218.339844 C 293.078125 218.082031 293.675781 217.761719 294.238281 217.386719 C 294.800781 217.011719 295.324219 216.582031 295.804688 216.101562 C 296.285156 215.621094 296.710938 215.101562 297.089844 214.539062 C 297.46875 213.972656 297.785156 213.378906 298.046875 212.753906 C 298.308594 212.125 298.503906 211.480469 298.636719 210.816406 C 298.769531 210.148438 298.835938 209.476562 298.839844 208.800781 L 298.839844 166.285156 C 298.835938 165.605469 298.769531 164.933594 298.636719 164.269531 C 298.503906 163.605469 298.308594 162.957031 298.046875 162.332031 C 297.785156 161.707031 297.46875 161.109375 297.089844 160.546875 C 296.710938 159.984375 296.285156 159.460938 295.804688 158.980469 C 295.324219 158.503906 294.800781 158.074219 294.238281 157.699219 C 293.675781 157.320312 293.078125 157.003906 292.453125 156.742188 C 291.824219 156.484375 291.179688 156.285156 290.515625 156.15625 C 289.847656 156.023438 289.175781 155.953125 288.5 155.953125 Z M 116.324219 196.015625 C 115.769531 196.015625 115.214844 195.960938 114.667969 195.851562 C 114.125 195.742188 113.59375 195.582031 113.078125 195.367188 C 112.5625 195.15625 112.074219 194.894531 111.613281 194.585938 C 111.148438 194.273438 110.71875 193.921875 110.328125 193.527344 C 109.933594 193.136719 109.582031 192.707031 109.273438 192.242188 C 108.960938 191.78125 108.699219 191.289062 108.488281 190.777344 C 108.273438 190.261719 108.113281 189.730469 108.003906 189.183594 C 107.898438 188.636719 107.84375 188.085938 107.84375 187.527344 C 107.84375 186.972656 107.898438 186.421875 108.007812 185.875 C 108.117188 185.328125 108.277344 184.796875 108.492188 184.28125 C 108.703125 183.769531 108.964844 183.28125 109.273438 182.816406 C 109.585938 182.355469 109.9375 181.925781 110.332031 181.53125 C 110.726562 181.136719 111.152344 180.785156 111.617188 180.476562 C 112.082031 180.167969 112.570312 179.90625 113.085938 179.695312 C 113.597656 179.480469 114.128906 179.320312 114.675781 179.210938 C 115.222656 179.105469 115.773438 179.050781 116.332031 179.050781 C 116.886719 179.050781 117.441406 179.105469 117.988281 179.214844 C 118.53125 179.324219 119.0625 179.484375 119.578125 179.699219 C 120.09375 179.914062 120.582031 180.175781 121.042969 180.484375 C 121.507812 180.792969 121.933594 181.148438 122.328125 181.539062 C 122.722656 181.933594 123.074219 182.363281 123.382812 182.828125 C 123.691406 183.292969 123.953125 183.78125 124.164062 184.296875 C 124.375 184.808594 124.539062 185.339844 124.644531 185.886719 C 124.753906 186.433594 124.808594 186.984375 124.804688 187.542969 C 124.804688 188.097656 124.75 188.648438 124.640625 189.195312 C 124.53125 189.738281 124.371094 190.269531 124.15625 190.78125 C 123.941406 191.292969 123.683594 191.78125 123.371094 192.246094 C 123.0625 192.707031 122.710938 193.132812 122.320312 193.527344 C 121.925781 193.921875 121.5 194.269531 121.035156 194.582031 C 120.574219 194.890625 120.085938 195.152344 119.574219 195.363281 C 119.058594 195.578125 118.53125 195.738281 117.984375 195.847656 C 117.441406 195.957031 116.890625 196.011719 116.335938 196.015625 Z M 116.324219 196.015625 "/><g clip-rule="nonzero" clip-path="url(#clip2)"><path style=" stroke:none;fill-rule:nonzero;fill:rgb(100%,100%,100%);fill-opacity:1;" d="M 288.5 236.867188 L 86.574219 236.867188 C 85.898438 236.867188 85.226562 236.933594 84.558594 237.070312 C 83.894531 237.203125 83.246094 237.398438 82.621094 237.660156 C 81.996094 237.921875 81.398438 238.238281 80.835938 238.617188 C 80.269531 238.996094 79.75 239.425781 79.269531 239.90625 C 78.789062 240.386719 78.363281 240.90625 77.984375 241.472656 C 77.609375 242.035156 77.289062 242.632812 77.03125 243.261719 C 76.773438 243.886719 76.578125 244.535156 76.445312 245.199219 C 76.3125 245.863281 76.246094 246.539062 76.246094 247.214844 L 76.246094 289.730469 C 76.25 290.410156 76.316406 291.078125 76.449219 291.742188 C 76.585938 292.40625 76.78125 293.050781 77.042969 293.675781 C 77.304688 294.300781 77.621094 294.894531 78 295.457031 C 78.375 296.019531 78.804688 296.539062 79.285156 297.019531 C 79.761719 297.496094 80.285156 297.921875 80.847656 298.300781 C 81.410156 298.675781 82.003906 298.992188 82.628906 299.253906 C 83.253906 299.511719 83.902344 299.707031 84.5625 299.839844 C 85.226562 299.972656 85.898438 300.042969 86.574219 300.042969 L 288.5 300.042969 C 289.175781 300.042969 289.847656 299.976562 290.515625 299.84375 C 291.179688 299.710938 291.824219 299.511719 292.453125 299.253906 C 293.078125 298.992188 293.675781 298.675781 294.238281 298.296875 C 294.800781 297.921875 295.324219 297.492188 295.804688 297.015625 C 296.285156 296.535156 296.710938 296.011719 297.089844 295.449219 C 297.46875 294.886719 297.785156 294.289062 298.046875 293.664062 C 298.308594 293.039062 298.503906 292.390625 298.636719 291.726562 C 298.769531 291.0625 298.835938 290.390625 298.839844 289.710938 L 298.839844 247.214844 C 298.839844 246.535156 298.773438 245.863281 298.640625 245.199219 C 298.507812 244.53125 298.3125 243.886719 298.050781 243.257812 C 297.792969 242.628906 297.472656 242.035156 297.097656 241.46875 C 296.71875 240.90625 296.292969 240.382812 295.8125 239.902344 C 295.332031 239.421875 294.808594 238.992188 294.246094 238.613281 C 293.679688 238.234375 293.082031 237.917969 292.457031 237.65625 C 291.828125 237.398438 291.183594 237.199219 290.515625 237.066406 C 289.851562 236.933594 289.179688 236.867188 288.5 236.867188 Z M 116.324219 276.925781 C 115.769531 276.925781 115.214844 276.871094 114.667969 276.765625 C 114.125 276.65625 113.59375 276.496094 113.078125 276.285156 C 112.5625 276.070312 112.074219 275.808594 111.609375 275.5 C 111.148438 275.191406 110.71875 274.839844 110.324219 274.449219 C 109.929688 274.054688 109.578125 273.625 109.265625 273.164062 C 108.957031 272.699219 108.695312 272.210938 108.480469 271.695312 C 108.269531 271.183594 108.105469 270.652344 107.996094 270.105469 C 107.890625 269.558594 107.835938 269.007812 107.832031 268.449219 C 107.832031 267.894531 107.886719 267.34375 107.996094 266.796875 C 108.105469 266.25 108.265625 265.71875 108.476562 265.203125 C 108.691406 264.6875 108.949219 264.199219 109.261719 263.738281 C 109.570312 263.273438 109.921875 262.84375 110.3125 262.449219 C 110.707031 262.054688 111.136719 261.703125 111.597656 261.394531 C 112.0625 261.085938 112.550781 260.824219 113.066406 260.609375 C 113.582031 260.398438 114.109375 260.234375 114.65625 260.125 C 115.203125 260.019531 115.753906 259.964844 116.3125 259.964844 C 116.867188 259.960938 117.421875 260.015625 117.96875 260.125 C 118.511719 260.234375 119.042969 260.394531 119.558594 260.609375 C 120.074219 260.820312 120.5625 261.082031 121.027344 261.390625 C 121.488281 261.699219 121.917969 262.050781 122.3125 262.445312 C 122.707031 262.839844 123.058594 263.269531 123.367188 263.730469 C 123.675781 264.195312 123.9375 264.683594 124.152344 265.199219 C 124.363281 265.710938 124.523438 266.242188 124.632812 266.789062 C 124.742188 267.335938 124.796875 267.886719 124.796875 268.445312 C 124.796875 269 124.742188 269.550781 124.632812 270.097656 C 124.523438 270.640625 124.363281 271.171875 124.148438 271.683594 C 123.9375 272.199219 123.675781 272.6875 123.367188 273.148438 C 123.058594 273.609375 122.710938 274.039062 122.316406 274.433594 C 121.925781 274.824219 121.496094 275.175781 121.035156 275.488281 C 120.574219 275.796875 120.085938 276.058594 119.574219 276.273438 C 119.058594 276.484375 118.53125 276.648438 117.984375 276.757812 C 117.441406 276.867188 116.890625 276.925781 116.335938 276.925781 Z M 116.324219 276.925781 "/></g></g></svg>