<?xml version="1.0" encoding="UTF-8"?><svg xmlns="http://www.w3.org/2000/svg" xmlns:xlink="http://www.w3.org/1999/xlink" contentScriptType="text/ecmascript" width="375" zoomAndPan="magnify" contentStyleType="text/css" viewBox="0 0 375 374.999991" height="374.999991" preserveAspectRatio="xMidYMid meet" version="1.0"><path fill="rgb(0%, 0%, 0%)" d="M 293.523438 261.546875 L 278.078125 246.105469 L 278.035156 246.148438 L 129.410156 97.523438 L 129.453125 97.480469 L 113.445312 81.472656 C 104.617188 72.644531 90.296875 72.613281 81.507812 81.398438 C 72.722656 90.1875 72.753906 104.507812 81.582031 113.335938 L 261.65625 293.414062 C 270.484375 302.242188 284.765625 302.320312 293.550781 293.53125 C 302.339844 284.746094 302.351562 270.375 293.523438 261.546875 Z M 293.523438 261.546875 " fill-opacity="1" fill-rule="nonzero"/><path fill="rgb(0%, 0%, 0%)" d="M 161.015625 144.929688 L 105.503906 89.417969 C 103.273438 87.1875 99.714844 87.179688 97.496094 89.398438 C 95.277344 91.617188 95.285156 95.175781 97.515625 97.40625 L 113.523438 113.414062 L 113.566406 113.367188 L 153.027344 152.828125 C 155.253906 155.058594 158.8125 155.066406 161.03125 152.847656 C 163.25 150.628906 163.199219 147.113281 161.015625 144.929688 Z M 161.015625 144.929688 " fill-opacity="1" fill-rule="nonzero"/><path fill="rgb(0%, 0%, 0%)" d="M 261.554688 81.472656 L 246.109375 96.917969 L 246.152344 96.960938 L 97.527344 245.585938 L 97.484375 245.542969 L 81.476562 261.546875 C 72.648438 270.375 72.617188 284.699219 81.402344 293.488281 C 90.191406 302.273438 104.515625 302.242188 113.34375 293.414062 L 293.417969 113.335938 C 302.246094 104.507812 302.324219 90.230469 293.535156 81.441406 C 284.75 72.65625 270.382812 72.644531 261.554688 81.472656 Z M 261.554688 81.472656 " fill-opacity="1" fill-rule="nonzero"/><path fill="rgb(0%, 0%, 0%)" d="M 144.933594 213.980469 L 89.421875 269.492188 C 87.191406 271.722656 87.183594 275.28125 89.402344 277.5 C 91.621094 279.71875 95.179688 279.710938 97.410156 277.480469 L 113.417969 261.472656 L 113.371094 261.429688 L 152.832031 221.96875 C 155.0625 219.742188 155.070312 216.183594 152.851562 213.960938 C 150.632812 211.742188 147.117188 211.796875 144.933594 213.980469 Z M 144.933594 213.980469 " fill-opacity="1" fill-rule="nonzero"/></svg>