<?xml version="1.0" encoding="UTF-8"?>
<svg xmlns="http://www.w3.org/2000/svg" xmlns:xlink="http://www.w3.org/1999/xlink" width="375pt" height="374.999991pt" viewBox="0 0 375 374.999991" version="1.2">
<g id="surface1">
<rect x="0" y="0" width="375" height="374.999991" style="fill:rgb(100%,100%,100%);fill-opacity:1;stroke:none;"/>
<rect x="0" y="0" width="375" height="374.999991" style="fill:rgb(100%,100%,100%);fill-opacity:1;stroke:none;"/>
<path style=" stroke:none;fill-rule:nonzero;fill:rgb(21.958923%,71.369934%,100%);fill-opacity:1;" d="M 375 187.5 C 375 83.964844 291.035156 0 187.5 0 C 83.964844 0 0 83.964844 0 187.5 C 0 291.035156 83.964844 375 187.5 375 C 291.035156 375 375 291.035156 375 187.5 Z M 375 187.5 "/>
<path style=" stroke:none;fill-rule:nonzero;fill:rgb(100%,100%,100%);fill-opacity:1;" d="M 308.570312 202.085938 L 308.570312 172.914062 L 280.910156 164.222656 C 278.566406 154.851562 274.863281 146.007812 269.953125 137.921875 L 283.402344 112.152344 L 262.773438 91.519531 L 236.925781 104.972656 C 228.914062 100.136719 220.148438 96.507812 210.777344 94.164062 L 202.011719 66.355469 L 172.761719 66.355469 L 163.996094 94.164062 C 154.699219 96.507812 145.859375 100.136719 137.847656 104.972656 L 112.226562 91.519531 L 91.519531 112.226562 L 104.972656 138 C 100.136719 146.085938 96.355469 154.851562 94.015625 164.296875 L 66.355469 172.988281 L 66.355469 202.160156 L 93.863281 210.851562 C 96.207031 220.300781 99.910156 229.21875 104.820312 237.378906 L 91.519531 262.773438 L 112.152344 283.402344 L 137.621094 270.101562 C 145.78125 275.015625 154.777344 278.792969 164.296875 281.136719 L 172.914062 308.496094 L 202.160156 308.496094 L 210.777344 281.136719 C 220.300781 278.792969 229.21875 275.015625 237.453125 270.101562 L 262.921875 283.402344 L 283.554688 262.773438 L 270.253906 237.226562 C 275.167969 229.066406 278.871094 220.148438 281.210938 210.703125 Z M 187.5 251.585938 C 152.207031 251.585938 123.5625 222.945312 123.5625 187.652344 C 123.5625 152.359375 152.207031 123.714844 187.5 123.714844 C 222.792969 123.714844 251.359375 152.359375 251.359375 187.652344 C 251.359375 223.019531 222.792969 251.585938 187.5 251.585938 Z M 187.5 251.585938 "/>
</g>
</svg>
