<?xml version="1.0" encoding="UTF-8"?>
<svg xmlns="http://www.w3.org/2000/svg" xmlns:xlink="http://www.w3.org/1999/xlink" width="375pt" height="374.999991pt" viewBox="0 0 375 374.999991" version="1.2">
<g id="surface1">
<rect x="0" y="0" width="375" height="374.999991" style="fill:rgb(100%,100%,100%);fill-opacity:1;stroke:none;"/>
<rect x="0" y="0" width="375" height="374.999991" style="fill:rgb(100%,100%,100%);fill-opacity:1;stroke:none;"/>
<path style=" stroke:none;fill-rule:nonzero;fill:rgb(67.83905%,86.669922%,84.709167%);fill-opacity:1;" d="M 299.164062 117.117188 L 294.0625 122.21875 L 252.84375 81.003906 L 257.949219 75.902344 C 263.070312 70.777344 271.371094 70.777344 276.492188 75.902344 L 299.164062 98.574219 C 304.285156 103.691406 304.285156 111.996094 299.164062 117.117188 Z M 141.773438 274.511719 L 100.554688 233.296875 L 248.675781 85.171875 L 289.894531 126.390625 Z M 73.449219 301.617188 L 94.828125 239.023438 L 136.042969 280.238281 Z M 187.535156 0.0117188 C 83.96875 0.0117188 0.0117188 83.96875 0.0117188 187.535156 C 0.0117188 291.097656 83.96875 375.050781 187.535156 375.050781 C 291.097656 375.050781 375.050781 291.097656 375.050781 187.535156 C 375.050781 83.96875 291.097656 0.0117188 187.535156 0.0117188 "/>
</g>
</svg>
