<?xml version="1.0" encoding="UTF-8"?><svg xmlns="http://www.w3.org/2000/svg" xmlns:xlink="http://www.w3.org/1999/xlink" contentScriptType="text/ecmascript" width="375" zoomAndPan="magnify" contentStyleType="text/css" viewBox="0 0 375 374.999991" height="374.999991" preserveAspectRatio="xMidYMid meet" version="1.0"><path fill="rgb(0%, 0%, 0%)" d="M 314.832031 165.285156 L 292.992188 165.285156 L 292.992188 165.347656 L 82.804688 165.347656 L 82.804688 165.285156 L 60.167969 165.285156 C 47.683594 165.285156 37.53125 175.386719 37.53125 187.816406 C 37.53125 200.242188 47.683594 210.347656 60.167969 210.347656 L 314.832031 210.347656 C 327.316406 210.347656 337.46875 200.304688 337.46875 187.878906 C 337.46875 175.453125 327.316406 165.285156 314.832031 165.285156 Z M 314.832031 165.285156 " fill-opacity="1" fill-rule="nonzero"/><path fill="rgb(0%, 0%, 0%)" d="M 138.671875 176.519531 L 60.167969 176.519531 C 57.015625 176.519531 54.492188 179.027344 54.492188 182.167969 C 54.492188 185.304688 57.015625 187.816406 60.167969 187.816406 L 82.804688 187.816406 L 82.804688 187.753906 L 138.609375 187.753906 C 141.761719 187.753906 144.285156 185.242188 144.285156 182.105469 C 144.285156 178.964844 141.761719 176.519531 138.671875 176.519531 Z M 138.671875 176.519531 " fill-opacity="1" fill-rule="nonzero"/><path fill="rgb(0%, 0%, 0%)" d="M 314.832031 263.296875 L 292.992188 263.296875 L 292.992188 263.359375 L 82.804688 263.359375 L 82.804688 263.296875 L 60.167969 263.296875 C 47.683594 263.296875 37.53125 273.398438 37.53125 285.828125 C 37.53125 298.253906 47.683594 308.359375 60.167969 308.359375 L 314.832031 308.359375 C 327.316406 308.359375 337.46875 298.316406 337.46875 285.890625 C 337.46875 273.460938 327.316406 263.296875 314.832031 263.296875 Z M 314.832031 263.296875 " fill-opacity="1" fill-rule="nonzero"/><path fill="rgb(0%, 0%, 0%)" d="M 138.671875 274.53125 L 60.167969 274.53125 C 57.015625 274.53125 54.492188 277.039062 54.492188 280.179688 C 54.492188 283.316406 57.015625 285.828125 60.167969 285.828125 L 82.804688 285.828125 L 82.804688 285.765625 L 138.609375 285.765625 C 141.761719 285.765625 144.285156 283.253906 144.285156 280.117188 C 144.285156 276.976562 141.761719 274.53125 138.671875 274.53125 Z M 138.671875 274.53125 " fill-opacity="1" fill-rule="nonzero"/><path fill="rgb(0%, 0%, 0%)" d="M 314.832031 67.273438 L 292.992188 67.273438 L 292.992188 67.335938 L 82.804688 67.335938 L 82.804688 67.273438 L 60.167969 67.273438 C 47.683594 67.273438 37.53125 77.378906 37.53125 89.804688 C 37.53125 102.230469 47.683594 112.335938 60.167969 112.335938 L 314.832031 112.335938 C 327.316406 112.335938 337.46875 102.292969 337.46875 89.867188 C 337.46875 77.441406 327.316406 67.273438 314.832031 67.273438 Z M 314.832031 67.273438 " fill-opacity="1" fill-rule="nonzero"/><path fill="rgb(0%, 0%, 0%)" d="M 138.671875 78.507812 L 60.167969 78.507812 C 57.015625 78.507812 54.492188 81.015625 54.492188 84.15625 C 54.492188 87.292969 57.015625 89.804688 60.167969 89.804688 L 82.804688 89.804688 L 82.804688 89.742188 L 138.609375 89.742188 C 141.761719 89.742188 144.285156 87.230469 144.285156 84.09375 C 144.285156 80.953125 141.761719 78.507812 138.671875 78.507812 Z M 138.671875 78.507812 " fill-opacity="1" fill-rule="nonzero"/></svg>