<?xml version="1.0" encoding="UTF-8"?><svg id="menu" xmlns="http://www.w3.org/2000/svg" xmlns:xlink="http://www.w3.org/1999/xlink" zoomAndPan="magnify" viewBox="0 0 375 374.999991"  preserveAspectRatio="xMidYMid meet" version="1.0"><defs><clipPath id="clip-0"><path d="M 49 90 L 326.464844 90 L 326.464844 285 L 49 285 Z M 49 90 " clip-rule="nonzero"/></clipPath></defs><g clip-path="url(#clip-0)"><path fill="rgb(0%, 0%, 0%)" d="M 63.441406 90.480469 C 62.527344 90.46875 61.617188 90.546875 60.714844 90.714844 C 59.8125 90.882812 58.9375 91.136719 58.085938 91.480469 C 57.234375 91.824219 56.425781 92.246094 55.65625 92.75 C 54.890625 93.253906 54.179688 93.828125 53.527344 94.472656 C 52.875 95.117188 52.289062 95.820312 51.777344 96.578125 C 51.261719 97.339844 50.828125 98.144531 50.476562 98.992188 C 50.121094 99.839844 49.855469 100.714844 49.671875 101.613281 C 49.492188 102.515625 49.402344 103.421875 49.402344 104.339844 C 49.402344 105.261719 49.492188 106.167969 49.671875 107.070312 C 49.855469 107.96875 50.121094 108.84375 50.476562 109.691406 C 50.828125 110.539062 51.261719 111.34375 51.777344 112.101562 C 52.289062 112.863281 52.875 113.566406 53.527344 114.210938 C 54.179688 114.855469 54.890625 115.429688 55.65625 115.933594 C 56.425781 116.4375 57.234375 116.859375 58.085938 117.203125 C 58.9375 117.546875 59.8125 117.800781 60.714844 117.96875 C 61.617188 118.136719 62.527344 118.214844 63.441406 118.203125 L 312.621094 118.203125 C 313.539062 118.214844 314.449219 118.136719 315.351562 117.96875 C 316.253906 117.800781 317.128906 117.546875 317.980469 117.203125 C 318.832031 116.859375 319.640625 116.4375 320.40625 115.933594 C 321.175781 115.429688 321.882812 114.855469 322.539062 114.210938 C 323.191406 113.566406 323.773438 112.863281 324.289062 112.101562 C 324.800781 111.34375 325.234375 110.539062 325.589844 109.691406 C 325.945312 108.84375 326.210938 107.96875 326.390625 107.070312 C 326.570312 106.167969 326.664062 105.261719 326.664062 104.339844 C 326.664062 103.421875 326.570312 102.515625 326.390625 101.613281 C 326.210938 100.714844 325.945312 99.839844 325.589844 98.992188 C 325.234375 98.144531 324.800781 97.339844 324.289062 96.578125 C 323.773438 95.820312 323.191406 95.117188 322.539062 94.472656 C 321.882812 93.828125 321.175781 93.253906 320.40625 92.75 C 319.640625 92.246094 318.832031 91.824219 317.980469 91.480469 C 317.128906 91.136719 316.253906 90.882812 315.351562 90.714844 C 314.449219 90.546875 313.539062 90.46875 312.621094 90.480469 Z M 63.441406 173.640625 C 62.527344 173.628906 61.617188 173.707031 60.714844 173.875 C 59.8125 174.042969 58.9375 174.296875 58.085938 174.640625 C 57.234375 174.980469 56.425781 175.40625 55.65625 175.90625 C 54.890625 176.410156 54.179688 176.984375 53.527344 177.628906 C 52.875 178.273438 52.289062 178.976562 51.777344 179.738281 C 51.261719 180.5 50.828125 181.304688 50.476562 182.152344 C 50.121094 183 49.855469 183.871094 49.671875 184.773438 C 49.492188 185.671875 49.402344 186.582031 49.402344 187.5 C 49.402344 188.417969 49.492188 189.328125 49.671875 190.230469 C 49.855469 191.128906 50.121094 192.003906 50.476562 192.851562 C 50.828125 193.699219 51.261719 194.5 51.777344 195.261719 C 52.289062 196.023438 52.875 196.726562 53.527344 197.371094 C 54.179688 198.015625 54.890625 198.589844 55.65625 199.09375 C 56.425781 199.597656 57.234375 200.019531 58.085938 200.363281 C 58.9375 200.703125 59.8125 200.960938 60.714844 201.128906 C 61.617188 201.296875 62.527344 201.375 63.441406 201.359375 L 312.621094 201.359375 C 313.539062 201.375 314.449219 201.296875 315.351562 201.128906 C 316.253906 200.960938 317.128906 200.703125 317.980469 200.363281 C 318.832031 200.019531 319.640625 199.597656 320.40625 199.09375 C 321.175781 198.589844 321.882812 198.015625 322.539062 197.371094 C 323.191406 196.726562 323.773438 196.023438 324.289062 195.261719 C 324.800781 194.5 325.234375 193.699219 325.589844 192.851562 C 325.945312 192.003906 326.210938 191.128906 326.390625 190.230469 C 326.570312 189.328125 326.660156 188.417969 326.660156 187.5 C 326.660156 186.582031 326.570312 185.671875 326.390625 184.773438 C 326.210938 183.871094 325.945312 183 325.589844 182.152344 C 325.234375 181.304688 324.800781 180.5 324.289062 179.738281 C 323.773438 178.976562 323.191406 178.273438 322.539062 177.628906 C 321.882812 176.984375 321.175781 176.410156 320.40625 175.90625 C 319.640625 175.40625 318.832031 174.980469 317.980469 174.640625 C 317.128906 174.296875 316.253906 174.042969 315.351562 173.875 C 314.449219 173.707031 313.539062 173.628906 312.621094 173.640625 Z M 63.441406 256.800781 C 62.527344 256.785156 61.617188 256.863281 60.714844 257.03125 C 59.8125 257.199219 58.9375 257.457031 58.085938 257.796875 C 57.234375 258.140625 56.425781 258.5625 55.65625 259.066406 C 54.890625 259.570312 54.179688 260.144531 53.527344 260.789062 C 52.875 261.433594 52.289062 262.136719 51.777344 262.898438 C 51.261719 263.660156 50.828125 264.460938 50.476562 265.308594 C 50.121094 266.15625 49.855469 267.03125 49.671875 267.929688 C 49.492188 268.832031 49.402344 269.742188 49.402344 270.660156 C 49.402344 271.578125 49.492188 272.488281 49.671875 273.386719 C 49.855469 274.289062 50.121094 275.164062 50.476562 276.007812 C 50.828125 276.855469 51.261719 277.660156 51.777344 278.421875 C 52.289062 279.183594 52.875 279.886719 53.527344 280.53125 C 54.179688 281.175781 54.890625 281.75 55.65625 282.253906 C 56.425781 282.757812 57.234375 283.179688 58.085938 283.523438 C 58.9375 283.863281 59.8125 284.121094 60.714844 284.289062 C 61.617188 284.457031 62.527344 284.53125 63.441406 284.519531 L 312.621094 284.519531 C 313.539062 284.53125 314.449219 284.457031 315.351562 284.289062 C 316.253906 284.121094 317.128906 283.863281 317.980469 283.523438 C 318.832031 283.179688 319.640625 282.757812 320.40625 282.253906 C 321.175781 281.75 321.886719 281.175781 322.539062 280.53125 C 323.191406 279.886719 323.773438 279.183594 324.289062 278.421875 C 324.800781 277.660156 325.234375 276.855469 325.589844 276.007812 C 325.945312 275.164062 326.210938 274.289062 326.390625 273.386719 C 326.574219 272.488281 326.664062 271.578125 326.664062 270.660156 C 326.664062 269.742188 326.574219 268.832031 326.390625 267.929688 C 326.210938 267.03125 325.945312 266.15625 325.589844 265.308594 C 325.234375 264.460938 324.800781 263.660156 324.289062 262.898438 C 323.773438 262.136719 323.191406 261.433594 322.539062 260.789062 C 321.886719 260.144531 321.175781 259.570312 320.40625 259.066406 C 319.640625 258.5625 318.832031 258.140625 317.980469 257.796875 C 317.128906 257.457031 316.253906 257.199219 315.351562 257.03125 C 314.449219 256.863281 313.539062 256.785156 312.621094 256.800781 Z M 63.441406 256.800781 " fill-opacity="1" fill-rule="nonzero"/></g></svg>