<?xml version="1.0" encoding="UTF-8"?>
<svg xmlns="http://www.w3.org/2000/svg" xmlns:xlink="http://www.w3.org/1999/xlink" width="375pt" height="374.999991pt" viewBox="0 0 375 374.999991" version="1.2">
<g id="surface1">
<rect x="0" y="0" width="375" height="374.999991" style="fill:rgb(100%,100%,100%);fill-opacity:1;stroke:none;"/>
<rect x="0" y="0" width="375" height="374.999991" style="fill:rgb(100%,100%,100%);fill-opacity:1;stroke:none;"/>
<path style=" stroke:none;fill-rule:nonzero;fill:rgb(21.958923%,71.369934%,100%);fill-opacity:1;" d="M 375 187.5 C 375 83.964844 291.035156 0 187.5 0 C 83.964844 0 0 83.964844 0 187.5 C 0 291.035156 83.964844 375 187.5 375 C 291.035156 375 375 291.035156 375 187.5 Z M 375 187.5 "/>
<path style=" stroke:none;fill-rule:nonzero;fill:rgb(100%,100%,100%);fill-opacity:1;" d="M 296.703125 170.875 L 126.285156 170.875 C 122.128906 170.875 118.726562 174.273438 118.726562 178.429688 L 118.726562 196.570312 C 118.726562 200.726562 122.128906 204.125 126.285156 204.125 L 296.703125 204.125 C 300.863281 204.125 304.261719 200.726562 304.261719 196.570312 L 304.261719 178.429688 C 304.261719 174.273438 300.863281 170.875 296.703125 170.875 "/>
<path style=" stroke:none;fill-rule:nonzero;fill:rgb(100%,100%,100%);fill-opacity:1;" d="M 96.433594 170.875 L 78.296875 170.875 C 74.136719 170.875 70.738281 174.273438 70.738281 178.429688 L 70.738281 196.570312 C 70.738281 200.726562 74.136719 204.125 78.296875 204.125 L 96.433594 204.125 C 100.589844 204.125 103.992188 200.726562 103.992188 196.570312 L 103.992188 178.429688 C 103.992188 174.273438 100.589844 170.875 96.433594 170.875 "/>
<path style=" stroke:none;fill-rule:nonzero;fill:rgb(100%,100%,100%);fill-opacity:1;" d="M 296.703125 118.726562 L 126.285156 118.726562 C 122.128906 118.726562 118.726562 122.128906 118.726562 126.285156 L 118.726562 144.421875 C 118.726562 148.578125 122.128906 151.980469 126.285156 151.980469 L 296.703125 151.980469 C 300.863281 151.980469 304.261719 148.578125 304.261719 144.421875 L 304.261719 126.285156 C 304.261719 122.128906 300.863281 118.726562 296.703125 118.726562 "/>
<path style=" stroke:none;fill-rule:nonzero;fill:rgb(100%,100%,100%);fill-opacity:1;" d="M 96.433594 118.726562 L 78.296875 118.726562 C 74.136719 118.726562 70.738281 122.128906 70.738281 126.285156 L 70.738281 144.421875 C 70.738281 148.578125 74.136719 151.980469 78.296875 151.980469 L 96.433594 151.980469 C 100.589844 151.980469 103.992188 148.578125 103.992188 144.421875 L 103.992188 126.285156 C 103.992188 122.128906 100.589844 118.726562 96.433594 118.726562 "/>
<path style=" stroke:none;fill-rule:nonzero;fill:rgb(100%,100%,100%);fill-opacity:1;" d="M 296.703125 223.019531 L 126.285156 223.019531 C 122.128906 223.019531 118.726562 226.421875 118.726562 230.578125 L 118.726562 248.714844 C 118.726562 252.871094 122.128906 256.273438 126.285156 256.273438 L 296.703125 256.273438 C 300.863281 256.273438 304.261719 252.871094 304.261719 248.714844 L 304.261719 230.578125 C 304.261719 226.421875 300.863281 223.019531 296.703125 223.019531 "/>
<path style=" stroke:none;fill-rule:nonzero;fill:rgb(100%,100%,100%);fill-opacity:1;" d="M 96.433594 223.019531 L 78.296875 223.019531 C 74.136719 223.019531 70.738281 226.421875 70.738281 230.578125 L 70.738281 248.714844 C 70.738281 252.871094 74.136719 256.273438 78.296875 256.273438 L 96.433594 256.273438 C 100.589844 256.273438 103.992188 252.871094 103.992188 248.714844 L 103.992188 230.578125 C 103.992188 226.421875 100.589844 223.019531 96.433594 223.019531 "/>
</g>
</svg>
