<?xml version="1.0" encoding="UTF-8"?>
<svg xmlns="http://www.w3.org/2000/svg" xmlns:xlink="http://www.w3.org/1999/xlink" width="375pt" height="374.999991pt" viewBox="0 0 375 374.999991" version="1.2">
<g id="surface1">
<rect x="0" y="0" width="375" height="374.999991" style="fill:rgb(100%,100%,100%);fill-opacity:1;stroke:none;"/>
<rect x="0" y="0" width="375" height="374.999991" style="fill:rgb(100%,100%,100%);fill-opacity:1;stroke:none;"/>
<rect x="0" y="0" width="375" height="374.999991" style="fill:rgb(100%,100%,100%);fill-opacity:1;stroke:none;"/>
<path style=" stroke:none;fill-rule:nonzero;fill:rgb(21.958923%,71.369934%,100%);fill-opacity:1;" d="M 0 187.5 C 0 83.964844 83.964844 0 187.5 0 C 291.035156 0 375 83.964844 375 187.5 C 375 291.035156 291.035156 375 187.5 375 C 83.964844 375 0 291.035156 0 187.5 "/>
<path style=" stroke:none;fill-rule:nonzero;fill:rgb(96.859741%,96.859741%,96.859741%);fill-opacity:1;" d="M 302.902344 128.175781 C 301.011719 124.472656 291.792969 116.082031 276.222656 123.714844 C 260.65625 131.347656 268.214844 148.203125 268.214844 148.203125 C 274.03125 160.066406 277.28125 173.441406 277.28125 187.5 C 277.28125 237.078125 237.078125 277.28125 187.5 277.28125 C 137.921875 277.28125 97.71875 237.078125 97.71875 187.5 C 97.71875 141.097656 132.933594 102.933594 178.128906 98.171875 L 178.128906 121.449219 C 178.128906 121.449219 178.054688 122.808594 179.488281 123.714844 C 180.925781 124.621094 182.359375 123.714844 182.359375 123.714844 L 256.878906 79.804688 C 256.878906 79.804688 258.539062 78.898438 258.539062 77.238281 C 258.539062 75.800781 256.878906 74.820312 256.878906 74.820312 L 182.664062 31.136719 C 182.664062 31.136719 181 29.925781 179.488281 30.53125 C 177.976562 31.136719 178.203125 33.175781 178.203125 33.175781 L 178.203125 58.117188 C 110.941406 62.953125 57.890625 119.03125 57.890625 187.5 C 57.890625 259.144531 116.007812 317.261719 187.652344 317.261719 C 259.296875 317.261719 317.414062 259.144531 317.414062 187.5 C 317.261719 166.113281 312.046875 145.933594 302.902344 128.175781 "/>
</g>
</svg>
