<?xml version="1.0" encoding="UTF-8"?>
<svg xmlns="http://www.w3.org/2000/svg" xmlns:xlink="http://www.w3.org/1999/xlink" width="375pt" height="374.999991pt" viewBox="0 0 375 374.999991" version="1.2">
<g id="surface1">
<rect x="0" y="0" width="375" height="374.999991" style="fill:rgb(100%,100%,100%);fill-opacity:1;stroke:none;"/>
<rect x="0" y="0" width="375" height="374.999991" style="fill:rgb(100%,100%,100%);fill-opacity:1;stroke:none;"/>
<rect x="0" y="0" width="375" height="374.999991" style="fill:rgb(100%,100%,100%);fill-opacity:1;stroke:none;"/>
<path style=" stroke:none;fill-rule:nonzero;fill:rgb(67.83905%,86.669922%,84.709167%);fill-opacity:1;" d="M 374.996094 187.503906 C 374.996094 83.953125 291.050781 0.0078125 187.5 0.0078125 C 83.949219 0.0078125 0.0078125 83.953125 0.0078125 187.503906 C 0.0078125 291.054688 83.949219 375 187.5 375 C 291.050781 375 374.996094 291.054688 374.996094 187.503906 "/>
<path style=" stroke:none;fill-rule:nonzero;fill:rgb(100%,100%,100%);fill-opacity:1;" d="M 317.117188 156.742188 L 296.007812 156.742188 C 285.652344 105.4375 240.226562 66.683594 185.914062 66.683594 C 175.851562 66.683594 166.097656 68.023438 156.816406 70.527344 C 147.472656 73.046875 142.324219 83.152344 145.851562 92.167969 C 145.890625 92.269531 145.933594 92.371094 145.972656 92.472656 C 149.003906 100.222656 157.320312 104.554688 165.347656 102.363281 C 171.902344 100.574219 178.792969 99.605469 185.914062 99.605469 C 221.964844 99.605469 252.464844 123.765625 262.117188 156.742188 L 246.433594 156.742188 C 239.023438 156.742188 234.386719 164.761719 238.085938 171.1875 L 273.425781 232.53125 C 277.132812 238.964844 286.417969 238.964844 290.121094 232.53125 L 325.464844 171.1875 C 329.164062 164.761719 324.527344 156.742188 317.117188 156.742188 "/>
<path style=" stroke:none;fill-rule:nonzero;fill:rgb(100%,100%,100%);fill-opacity:1;" d="M 57.886719 218.261719 L 78.996094 218.261719 C 89.355469 269.566406 134.777344 308.320312 189.089844 308.320312 C 199.152344 308.320312 208.90625 306.980469 218.1875 304.476562 C 227.535156 301.957031 232.679688 291.851562 229.152344 282.839844 C 229.113281 282.734375 229.070312 282.632812 229.03125 282.527344 C 226.003906 274.78125 217.683594 270.449219 209.660156 272.640625 C 203.101562 274.429688 196.210938 275.402344 189.089844 275.402344 C 153.039062 275.402344 122.542969 251.238281 112.890625 218.261719 L 128.570312 218.261719 C 135.984375 218.261719 140.617188 210.242188 136.917969 203.820312 L 101.578125 142.472656 C 97.871094 136.042969 88.585938 136.042969 84.882812 142.472656 L 49.539062 203.820312 C 45.839844 210.242188 50.476562 218.261719 57.886719 218.261719 "/>
</g>
</svg>
