<?xml version="1.0" encoding="UTF-8"?><svg id="reload" xmlns="http://www.w3.org/2000/svg" xmlns:xlink="http://www.w3.org/1999/xlink" contentScriptType="text/ecmascript" zoomAndPan="magnify" contentStyleType="text/css" viewBox="0 0 375 374.999991"  preserveAspectRatio="xMidYMid meet" version="1.2"><defs><clipPath xml:id="clip1" id="clip1"><path d="M 33.167969 65 L 250 65 L 250 245 L 33.167969 245 Z M 33.167969 65 "/></clipPath><clipPath xml:id="clip2" id="clip2"><path d="M 125 132 L 342.167969 132 L 342.167969 311.691406 L 125 311.691406 Z M 125 132 "/></clipPath></defs><g xml:id="surface1" id="surface1"><path style=" stroke:none;fill-rule:nonzero;fill-opacity:1;" d="M 187.5 0 C 84.113281 0 0 84.113281 0 187.5 C 0 290.886719 84.113281 375 187.5 375 C 290.886719 375 375 290.886719 375 187.5 C 375 84.113281 290.886719 0 187.5 0 Z M 187.5 0 "/><g clip-rule="nonzero" clip-path="url(#clip1)"><path style=" stroke:none;fill-rule:nonzero;fill:rgb(100%,100%,100%);fill-opacity:1;" d="M 100.242188 185.515625 C 101.941406 137.28125 142.460938 99.542969 190.742188 101.242188 C 202.398438 101.652344 213.894531 104.394531 224.480469 109.300781 C 233.453125 113.410156 244.042969 109.464844 248.128906 100.503906 C 252.214844 91.597656 248.375 81.097656 239.515625 76.933594 C 177.792969 48.320312 104.519531 75.125 75.90625 136.789062 C 68.773438 152.136719 64.90625 168.769531 64.496094 185.679688 C 64.46875 187.296875 63.152344 188.585938 61.53125 188.585938 L 36.128906 188.585938 C 34.484375 188.585938 33.167969 189.929688 33.167969 191.574219 C 33.167969 192.3125 33.441406 193.023438 33.964844 193.574219 L 80.132812 243.371094 C 81.257812 244.574219 83.148438 244.65625 84.355469 243.535156 C 84.410156 243.480469 84.464844 243.425781 84.523438 243.371094 L 130.691406 193.574219 C 131.816406 192.367188 131.734375 190.503906 130.527344 189.378906 C 129.976562 188.859375 129.265625 188.585938 128.496094 188.585938 L 103.203125 188.585938 C 101.558594 188.585938 100.242188 187.269531 100.242188 185.625 C 100.242188 185.570312 100.242188 185.542969 100.242188 185.515625 "/></g><g clip-rule="nonzero" clip-path="url(#clip2)"><path style=" stroke:none;fill-rule:nonzero;fill:rgb(100%,100%,100%);fill-opacity:1;" d="M 275.09375 191.65625 C 273.394531 239.917969 232.875 277.628906 184.59375 275.929688 C 172.910156 275.515625 161.441406 272.777344 150.851562 267.871094 C 141.882812 263.789062 131.292969 267.707031 127.179688 276.667969 C 123.117188 285.574219 126.960938 296.070312 135.820312 300.238281 C 197.542969 328.847656 270.816406 302.046875 299.429688 240.382812 C 306.53125 225.035156 310.429688 208.398438 310.8125 191.492188 C 310.867188 189.875 312.183594 188.585938 313.800781 188.585938 L 339.207031 188.585938 C 340.824219 188.585938 342.167969 187.269531 342.167969 185.625 C 342.167969 184.859375 341.894531 184.144531 341.371094 183.597656 L 295.175781 133.800781 C 294.078125 132.59375 292.1875 132.539062 291.007812 133.636719 C 290.953125 133.691406 290.894531 133.746094 290.839844 133.800781 L 244.644531 183.597656 C 243.546875 184.804688 243.601562 186.667969 244.808594 187.789062 C 245.359375 188.3125 246.070312 188.585938 246.8125 188.585938 L 272.132812 188.585938 C 273.777344 188.585938 275.121094 189.929688 275.09375 191.574219 C 275.09375 191.601562 275.09375 191.628906 275.09375 191.65625 "/></g></g></svg>