<?xml version="1.0" encoding="UTF-8"?><svg id="reload" xmlns="http://www.w3.org/2000/svg" xmlns:xlink="http://www.w3.org/1999/xlink" contentScriptType="text/ecmascript" zoomAndPan="magnify" contentStyleType="text/css" viewBox="0 0 375 374.999991" preserveAspectRatio="xMidYMid meet" version="1.2"><defs><clipPath xml:id="clip1" id="clip1"><path d="M 222.238281 6.671875 L 372.398438 6.671875 L 372.398438 157 L 222.238281 157 Z M 222.238281 6.671875 "/></clipPath><clipPath xml:id="clip2" id="clip2"><path d="M 2.109375 0 L 334 0 L 334 375 L 2.109375 375 Z M 2.109375 0 "/></clipPath></defs><g xml:id="surface1" id="surface1"><g clip-rule="nonzero" clip-path="url(#clip1)"><path style=" stroke:none;fill-rule:nonzero;fill:fill-opacity:1;" d="M 365.605469 156.957031 L 227.074219 156.957031 C 222.890625 156.957031 220.792969 151.890625 223.75 148.929688 L 364.375 8.203125 C 367.359375 5.214844 372.460938 7.375 372.398438 11.597656 L 370.300781 152.328125 C 370.265625 154.898438 368.167969 156.957031 365.605469 156.957031 "/></g><g clip-rule="nonzero" clip-path="url(#clip2)"><path style=" stroke:none;fill-rule:nonzero;fill;fill-opacity:1;" d="M 297.675781 262.496094 C 292.367188 257.179688 283.699219 257.617188 278.832031 263.34375 C 257.339844 288.625 225.347656 304.714844 189.648438 304.714844 C 125.066406 304.707031 72.527344 252.128906 72.515625 187.496094 C 72.527344 122.863281 125.066406 70.285156 189.660156 70.285156 C 221.945312 70.273438 251.226562 83.425781 272.441406 104.652344 L 322.078125 54.976562 C 288.152344 21.023438 241.304688 0 189.648438 0 C 86.335938 0 2.296875 84.105469 2.296875 187.496094 C 2.296875 290.886719 86.347656 375 189.660156 375 C 245.429688 375 295.570312 350.449219 329.914062 311.601562 C 334.363281 306.566406 334.0625 298.910156 329.3125 294.15625 L 297.675781 262.496094 "/></g></g></svg>