<?xml version="1.0" encoding="iso-8859-1"?>
<!-- Generator: Adobe Illustrator 16.0.0, SVG Export Plug-In . SVG Version: 6.00 Build 0)  -->
<!DOCTYPE svg PUBLIC "-//W3C//DTD SVG 1.1//EN" "http://www.w3.org/Graphics/SVG/1.1/DTD/svg11.dtd">
<svg version="1.1" id="Capa_1" xmlns="http://www.w3.org/2000/svg" xmlns:xlink="http://www.w3.org/1999/xlink" x="0px" y="0px"
	 width="40.656px" height="40.656px" viewBox="0 0 40.656 40.656" style="enable-background:new 0 0 40.656 40.656;"
	 xml:space="preserve">
<g>
	<path d="M29.276,19.278c1.054,1.052,1.054,2.761,0,3.814L12.518,39.851c-0.506,0.506-1.192,0.791-1.908,0.791
		c-0.008,0-0.017,0-0.025,0l-7.838-0.072c-1.472-0.015-2.661-1.203-2.673-2.674L0,30.056c-0.006-0.726,0.278-1.421,0.791-1.934
		l16.758-16.757c1.053-1.054,2.763-1.054,3.816,0L29.276,19.278z M39.866,8.688l-7.913-7.913c-1.013-1.013-2.805-1.013-3.815,0
		L26.872,2.04c-0.506,0.506-0.791,1.192-0.791,1.908c0,0.715,0.285,1.402,0.791,1.908l7.913,7.913
		c0.525,0.527,1.217,0.791,1.908,0.791c0.69,0,1.382-0.264,1.907-0.791l1.266-1.265C40.92,11.451,40.92,9.742,39.866,8.688z
		 M26.071,6.658c-1.054-1.054-2.764-1.054-3.816,0c-1.054,1.053-1.054,2.762,0,3.815l7.912,7.913
		c0.527,0.527,1.22,0.791,1.908,0.791c0.691,0,1.382-0.263,1.907-0.791c1.055-1.053,1.055-2.762,0-3.815L26.071,6.658z"/>
</g>
<g>
</g>
<g>
</g>
<g>
</g>
<g>
</g>
<g>
</g>
<g>
</g>
<g>
</g>
<g>
</g>
<g>
</g>
<g>
</g>
<g>
</g>
<g>
</g>
<g>
</g>
<g>
</g>
<g>
</g>
</svg>
